<svg version="1.1" preserveAspectRatio="none" xmlns="http://www.w3.org/2000/svg" width="500" height="500" viewBox="0 0 500 500"><rect width="100%" height="100%" fill="#F7F4F2" fill-opacity="1"/><svg viewBox="69.0338 187.6329 388.143 236.5226" width="333" height="202.9201242840912" x="83.5px" y="148.5399px" xmlns="http://www.w3.org/2000/svg" xmlns:xlink="http://www.w3.org/1999/xlink" preserveAspectRatio="none"><defs></defs><style>.companyName {fill:#161616;fill-opacity:1;}.icon1 {fill:#161616;fill-opacity:1;}.icon2 {fill:#E5B7D2;fill-opacity:1;}.icon3 {fill:#848282;fill-opacity:1;}.icon3-str {stroke:#848282;stroke-opacity:1;}.text {fill:#161616;fill-opacity:1;}</style><g opacity="1" transform="rotate(0 144.0251 404.1555)">
<svg width="238.1604" height="20" x="144.0251" y="404.1555" version="1.1" preserveAspectRatio="none" viewBox="3.56 -29.2 453.88 38.120000000000005">
  <g transform="matrix(1 0 0 1 0 0)" class="text"><path id="id-6izo4zJp21" d="M6.36-2.48L22.64-2.48L22.64 0L3.56 0L3.56-28.40L22.28-28.40L22.28-25.92L6.36-25.92L6.36-15.68L20.24-15.68L20.24-13.32L6.36-13.32L6.36-2.48Z M29.08-3.80L29.08-29.20L31.80-29.20L31.80-4.72Q31.80-3.56 32.44-2.90Q33.08-2.24 34.24-2.24L34.24-2.24Q34.68-2.24 35.28-2.36Q35.88-2.48 36.40-2.68L36.40-2.68L36.88-0.48Q36.12-0.16 35.02 0.04Q33.92 0.24 33.12 0.24L33.12 0.24Q31.24 0.24 30.16-0.82Q29.08-1.88 29.08-3.80L29.08-3.80Z M50.44 0.40L50.44 0.40Q48.16 0.40 46.26-0.46Q44.36-1.32 42.96-2.82Q41.56-4.32 40.78-6.28Q40.00-8.24 40.00-10.48L40.00-10.48Q40.00-12.68 40.78-14.62Q41.56-16.56 42.94-18.02Q44.32-19.48 46.24-20.34Q48.16-21.20 50.40-21.20L50.40-21.20Q52.68-21.20 54.58-20.34Q56.48-19.48 57.84-18Q59.20-16.52 59.96-14.60Q60.72-12.68 60.72-10.52L60.72-10.52Q60.72-10.20 60.72-9.88Q60.72-9.56 60.68-9.44L60.68-9.44L42.84-9.44Q42.96-7.76 43.62-6.34Q44.28-4.92 45.32-3.88Q46.36-2.84 47.70-2.26Q49.04-1.68 50.56-1.68L50.56-1.68Q51.56-1.68 52.56-1.96Q53.56-2.24 54.40-2.72Q55.24-3.20 55.92-3.90Q56.60-4.60 56.96-5.44L56.96-5.44L59.32-4.80Q58.84-3.64 57.96-2.70Q57.08-1.76 55.92-1.06Q54.76-0.36 53.36 0.02Q51.96 0.40 50.44 0.40ZM42.80-11.52L58.12-11.52Q58-13.20 57.34-14.58Q56.68-15.96 55.66-16.96Q54.64-17.96 53.30-18.52Q51.96-19.08 50.44-19.08L50.44-19.08Q48.92-19.08 47.56-18.52Q46.20-17.96 45.18-16.96Q44.16-15.96 43.54-14.56Q42.92-13.16 42.80-11.52L42.80-11.52Z M74.88 0.28L74.88 0.28Q72.72 0.28 70.94-0.62Q69.16-1.52 67.86-3Q66.56-4.48 65.84-6.40Q65.12-8.32 65.12-10.36L65.12-10.36Q65.12-12.52 65.82-14.50Q66.52-16.48 67.80-17.96Q69.08-19.44 70.86-20.32Q72.64-21.20 74.80-21.20L74.80-21.20Q77.48-21.20 79.44-19.86Q81.40-18.52 82.80-16.48L82.80-16.48L82.80-20.84L85.24-20.84L85.24 0.08Q85.24 2.24 84.42 3.90Q83.60 5.56 82.22 6.68Q80.84 7.80 78.98 8.36Q77.12 8.92 75.04 8.92L75.04 8.92Q71.44 8.92 69.24 7.64Q67.04 6.36 65.68 4.20L65.68 4.20L67.36 2.88Q68.60 4.88 70.64 5.82Q72.68 6.76 75.04 6.76L75.04 6.76Q76.56 6.76 77.92 6.34Q79.28 5.92 80.30 5.10Q81.32 4.28 81.92 3.02Q82.52 1.76 82.52 0.08L82.52 0.08L82.52-4.04Q81.32-2.04 79.24-0.88Q77.16 0.28 74.88 0.28ZM75.64-2L75.64-2Q76.84-2 78-2.44Q79.16-2.88 80.10-3.62Q81.04-4.36 81.68-5.28Q82.32-6.20 82.52-7.16L82.52-7.16L82.52-13.60Q82.08-14.72 81.32-15.68Q80.56-16.64 79.60-17.32Q78.64-18 77.54-18.40Q76.44-18.80 75.32-18.80L75.32-18.80Q73.56-18.80 72.18-18.06Q70.80-17.32 69.84-16.12Q68.88-14.92 68.38-13.40Q67.88-11.88 67.88-10.32L67.88-10.32Q67.88-8.64 68.48-7.12Q69.08-5.60 70.14-4.46Q71.20-3.32 72.60-2.66Q74-2 75.64-2Z M98.08 0.40L98.08 0.40Q96.60 0.40 95.34-0.10Q94.08-0.60 93.14-1.48Q92.20-2.36 91.68-3.54Q91.16-4.72 91.16-6.08L91.16-6.08Q91.16-7.44 91.80-8.60Q92.44-9.76 93.60-10.60Q94.76-11.44 96.36-11.90Q97.96-12.36 99.88-12.36L99.88-12.36Q101.48-12.36 103.12-12.08Q104.76-11.80 106.04-11.28L106.04-11.28L106.04-13.16Q106.04-15.92 104.48-17.54Q102.92-19.16 100.16-19.16L100.16-19.16Q98.56-19.16 96.88-18.52Q95.20-17.88 93.48-16.68L93.48-16.68L92.52-18.48Q96.56-21.20 100.36-21.20L100.36-21.20Q104.28-21.20 106.52-19Q108.76-16.80 108.76-12.92L108.76-12.92L108.76-3.52Q108.76-2.40 109.76-2.40L109.76-2.40L109.76 0Q109.08 0.12 108.72 0.12L108.72 0.12Q107.68 0.12 107.10-0.40Q106.52-0.92 106.48-1.84L106.48-1.84L106.40-3.48Q104.96-1.60 102.78-0.60Q100.60 0.40 98.08 0.40ZM98.72-1.68L98.72-1.68Q100.84-1.68 102.62-2.48Q104.40-3.28 105.32-4.60L105.32-4.60Q105.68-4.96 105.86-5.38Q106.04-5.80 106.04-6.16L106.04-6.16L106.04-9.56Q104.68-10.08 103.22-10.36Q101.76-10.64 100.24-10.64L100.24-10.64Q97.36-10.64 95.56-9.44Q93.76-8.24 93.76-6.28L93.76-6.28Q93.76-5.32 94.14-4.48Q94.52-3.64 95.18-3.02Q95.84-2.40 96.76-2.04Q97.68-1.68 98.72-1.68Z M133.76-12.20L133.76 0L131.04 0L131.04-11.64Q131.04-15.36 129.94-17.04Q128.84-18.72 126.56-18.72L126.56-18.72Q125.36-18.72 124.16-18.28Q122.96-17.84 121.94-17.04Q120.92-16.24 120.12-15.14Q119.32-14.04 118.96-12.76L118.96-12.76L118.96 0L116.24 0L116.24-20.84L118.72-20.84L118.72-16.12Q120-18.40 122.38-19.80Q124.76-21.20 127.56-21.20L127.56-21.20Q129.28-21.20 130.48-20.56Q131.68-19.92 132.40-18.76Q133.12-17.60 133.44-15.92Q133.76-14.24 133.76-12.20L133.76-12.20Z M139.72-10.48L139.72-10.48Q139.72-12.68 140.48-14.64Q141.24-16.60 142.62-18.06Q144-19.52 145.92-20.36Q147.84-21.20 150.16-21.20L150.16-21.20Q153.12-21.20 155.32-19.86Q157.52-18.52 158.64-16.24L158.64-16.24L156-15.40Q155.12-17 153.54-17.90Q151.96-18.80 150.04-18.80L150.04-18.80Q148.44-18.80 147.06-18.16Q145.68-17.52 144.66-16.42Q143.64-15.32 143.06-13.80Q142.48-12.28 142.48-10.48L142.48-10.48Q142.48-8.72 143.08-7.16Q143.68-5.60 144.72-4.46Q145.76-3.32 147.14-2.66Q148.52-2 150.08-2L150.08-2Q151.08-2 152.06-2.28Q153.04-2.56 153.88-3.06Q154.72-3.56 155.32-4.20Q155.92-4.84 156.16-5.56L156.16-5.56L158.84-4.76Q158.40-3.64 157.56-2.70Q156.72-1.76 155.58-1.06Q154.44-0.36 153.06 0.02Q151.68 0.40 150.20 0.40L150.20 0.40Q147.92 0.40 146-0.46Q144.08-1.32 142.68-2.82Q141.28-4.32 140.50-6.28Q139.72-8.24 139.72-10.48Z M173.52 0.40L173.52 0.40Q171.24 0.40 169.34-0.46Q167.44-1.32 166.04-2.82Q164.64-4.32 163.86-6.28Q163.08-8.24 163.08-10.48L163.08-10.48Q163.08-12.68 163.86-14.62Q164.64-16.56 166.02-18.02Q167.40-19.48 169.32-20.34Q171.24-21.20 173.48-21.20L173.48-21.20Q175.76-21.20 177.66-20.34Q179.56-19.48 180.92-18Q182.28-16.52 183.04-14.60Q183.80-12.68 183.80-10.52L183.80-10.52Q183.80-10.20 183.80-9.88Q183.80-9.56 183.76-9.44L183.76-9.44L165.92-9.44Q166.04-7.76 166.70-6.34Q167.36-4.92 168.40-3.88Q169.44-2.84 170.78-2.26Q172.12-1.68 173.64-1.68L173.64-1.68Q174.64-1.68 175.64-1.96Q176.64-2.24 177.48-2.72Q178.32-3.20 179-3.90Q179.68-4.60 180.04-5.44L180.04-5.44L182.40-4.80Q181.92-3.64 181.04-2.70Q180.16-1.76 179-1.06Q177.84-0.36 176.44 0.02Q175.04 0.40 173.52 0.40ZM165.88-11.52L181.20-11.52Q181.08-13.20 180.42-14.58Q179.76-15.96 178.74-16.96Q177.72-17.96 176.38-18.52Q175.04-19.08 173.52-19.08L173.52-19.08Q172-19.08 170.64-18.52Q169.28-17.96 168.26-16.96Q167.24-15.96 166.62-14.56Q166-13.16 165.88-11.52L165.88-11.52Z M216.24-16.08L211.28-28.20L213.92-28.20L217.92-18.12L221.96-28.20L224.64-28.20L219.68-16.08L225.12-3.24L235.40-28.40L238.44-28.40L226.40 0L223.92 0L217.96-14.04L211.96 0L209.52 0L197.52-28.40L200.52-28.40L210.84-3.24L216.24-16.08Z M246.20 0L243.48 0L243.48-20.84L246.20-20.84L246.20 0ZM246.20-25.20L243.48-25.20L243.48-29.20L246.20-29.20L246.20-25.20Z M263.08-3.20L263.80-1Q263.56-0.88 263.10-0.68Q262.64-0.48 262.04-0.28Q261.44-0.08 260.68 0.08Q259.92 0.24 259.08 0.24L259.08 0.24Q258.20 0.24 257.40 0Q256.60-0.24 256.00-0.74Q255.40-1.24 255.04-2Q254.68-2.76 254.68-3.76L254.68-3.76L254.68-18.68L251.80-18.68L251.80-20.84L254.68-20.84L254.68-27.88L257.40-27.88L257.40-20.84L262.20-20.84L262.20-18.68L257.40-18.68L257.40-4.52Q257.48-3.36 258.22-2.82Q258.96-2.28 259.92-2.28L259.92-2.28Q261.08-2.28 261.96-2.66Q262.84-3.04 263.08-3.20L263.08-3.20Z M286.32-12.20L286.32 0L283.60 0L283.60-11.64Q283.60-15.20 282.38-16.96Q281.16-18.72 278.80-18.72L278.80-18.72Q277.64-18.72 276.50-18.26Q275.36-17.80 274.36-17Q273.36-16.20 272.62-15.12Q271.88-14.04 271.52-12.76L271.52-12.76L271.52 0L268.80 0L268.80-29.20L271.52-29.20L271.52-16.12Q272.76-18.48 274.96-19.84Q277.16-21.20 279.72-21.20L279.72-21.20Q281.52-21.20 282.76-20.54Q284.00-19.88 284.80-18.70Q285.60-17.52 285.96-15.86Q286.32-14.20 286.32-12.20L286.32-12.20Z M296.44 0L293.72 0L293.72-20.84L296.44-20.84L296.44 0ZM296.44-25.20L293.72-25.20L293.72-29.20L296.44-29.20L296.44-25.20Z M321.56-12.20L321.56 0L318.84 0L318.84-11.64Q318.84-15.36 317.74-17.04Q316.64-18.72 314.36-18.72L314.36-18.72Q313.16-18.72 311.96-18.28Q310.76-17.84 309.74-17.04Q308.72-16.24 307.92-15.14Q307.12-14.04 306.76-12.76L306.76-12.76L306.76 0L304.04 0L304.04-20.84L306.52-20.84L306.52-16.12Q307.80-18.40 310.18-19.80Q312.56-21.20 315.36-21.20L315.36-21.20Q317.08-21.20 318.28-20.56Q319.48-19.92 320.20-18.76Q320.92-17.60 321.24-15.92Q321.56-14.24 321.56-12.20L321.56-12.20Z M344.12 0L341.32 0L341.32-28.40L353.32-28.40Q355.16-28.40 356.70-27.62Q358.24-26.84 359.36-25.58Q360.48-24.32 361.10-22.72Q361.72-21.12 361.72-19.48L361.72-19.48Q361.72-17.92 361.26-16.50Q360.80-15.08 359.98-13.94Q359.16-12.80 358.00-12.02Q356.84-11.24 355.40-10.96L355.40-10.96L362.36 0L359.20 0L352.52-10.48L344.12-10.48L344.12 0ZM344.12-25.92L344.12-12.96L353.40-12.96Q354.64-12.96 355.66-13.50Q356.68-14.04 357.40-14.96Q358.12-15.88 358.52-17.04Q358.92-18.20 358.92-19.48L358.92-19.48Q358.92-20.76 358.46-21.94Q358.00-23.12 357.22-24Q356.44-24.88 355.38-25.40Q354.32-25.92 353.16-25.92L353.16-25.92L344.12-25.92Z M376.88 0.40L376.88 0.40Q374.60 0.40 372.70-0.46Q370.80-1.32 369.40-2.82Q368.00-4.32 367.22-6.28Q366.44-8.24 366.44-10.48L366.44-10.48Q366.44-12.68 367.22-14.62Q368.00-16.56 369.38-18.02Q370.76-19.48 372.68-20.34Q374.60-21.20 376.84-21.20L376.84-21.20Q379.12-21.20 381.02-20.34Q382.92-19.48 384.28-18Q385.64-16.52 386.40-14.60Q387.16-12.68 387.16-10.52L387.16-10.52Q387.16-10.20 387.16-9.88Q387.16-9.56 387.12-9.44L387.12-9.44L369.28-9.44Q369.40-7.76 370.06-6.34Q370.72-4.92 371.76-3.88Q372.80-2.84 374.14-2.26Q375.48-1.68 377.00-1.68L377.00-1.68Q378.00-1.68 379.00-1.96Q380.00-2.24 380.84-2.72Q381.68-3.20 382.36-3.90Q383.04-4.60 383.40-5.44L383.40-5.44L385.76-4.80Q385.28-3.64 384.40-2.70Q383.52-1.76 382.36-1.06Q381.20-0.36 379.80 0.02Q378.40 0.40 376.88 0.40ZM369.24-11.52L384.56-11.52Q384.44-13.20 383.78-14.58Q383.12-15.96 382.10-16.96Q381.08-17.96 379.74-18.52Q378.40-19.08 376.88-19.08L376.88-19.08Q375.36-19.08 374.00-18.52Q372.64-17.96 371.62-16.96Q370.60-15.96 369.98-14.56Q369.36-13.16 369.24-11.52L369.24-11.52Z M398.20 0.40L398.20 0.40Q396.72 0.40 395.46-0.10Q394.20-0.60 393.26-1.48Q392.32-2.36 391.80-3.54Q391.28-4.72 391.28-6.08L391.28-6.08Q391.28-7.44 391.92-8.60Q392.56-9.76 393.72-10.60Q394.88-11.44 396.48-11.90Q398.08-12.36 400.00-12.36L400.00-12.36Q401.60-12.36 403.24-12.08Q404.88-11.80 406.16-11.28L406.16-11.28L406.16-13.16Q406.16-15.92 404.60-17.54Q403.04-19.16 400.28-19.16L400.28-19.16Q398.68-19.16 397.00-18.52Q395.32-17.88 393.60-16.68L393.60-16.68L392.64-18.48Q396.68-21.20 400.48-21.20L400.48-21.20Q404.40-21.20 406.64-19Q408.88-16.80 408.88-12.92L408.88-12.92L408.88-3.52Q408.88-2.40 409.88-2.40L409.88-2.40L409.88 0Q409.20 0.12 408.84 0.12L408.84 0.12Q407.80 0.12 407.22-0.40Q406.64-0.92 406.60-1.84L406.60-1.84L406.52-3.48Q405.08-1.60 402.90-0.60Q400.72 0.40 398.20 0.40ZM398.84-1.68L398.84-1.68Q400.96-1.68 402.74-2.48Q404.52-3.28 405.44-4.60L405.44-4.60Q405.80-4.96 405.98-5.38Q406.16-5.80 406.16-6.16L406.16-6.16L406.16-9.56Q404.80-10.08 403.34-10.36Q401.88-10.64 400.36-10.64L400.36-10.64Q397.48-10.64 395.68-9.44Q393.88-8.24 393.88-6.28L393.88-6.28Q393.88-5.32 394.26-4.48Q394.64-3.64 395.30-3.02Q395.96-2.40 396.88-2.04Q397.80-1.68 398.84-1.68Z M414.92-10.48L414.92-10.48Q414.92-12.68 415.68-14.64Q416.44-16.60 417.82-18.06Q419.20-19.52 421.12-20.36Q423.04-21.20 425.36-21.20L425.36-21.20Q428.32-21.20 430.52-19.86Q432.72-18.52 433.84-16.24L433.84-16.24L431.20-15.40Q430.32-17 428.74-17.90Q427.16-18.80 425.24-18.80L425.24-18.80Q423.64-18.80 422.26-18.16Q420.88-17.52 419.86-16.42Q418.84-15.32 418.26-13.80Q417.68-12.28 417.68-10.48L417.68-10.48Q417.68-8.72 418.28-7.16Q418.88-5.60 419.92-4.46Q420.96-3.32 422.34-2.66Q423.72-2 425.28-2L425.28-2Q426.28-2 427.26-2.28Q428.24-2.56 429.08-3.06Q429.92-3.56 430.52-4.20Q431.12-4.84 431.36-5.56L431.36-5.56L434.04-4.76Q433.60-3.64 432.76-2.70Q431.92-1.76 430.78-1.06Q429.64-0.36 428.26 0.02Q426.88 0.40 425.40 0.40L425.40 0.40Q423.12 0.40 421.20-0.46Q419.28-1.32 417.88-2.82Q416.48-4.32 415.70-6.28Q414.92-8.24 414.92-10.48Z M457.44-12.20L457.44 0L454.72 0L454.72-11.64Q454.72-15.20 453.50-16.96Q452.28-18.72 449.92-18.72L449.92-18.72Q448.76-18.72 447.62-18.26Q446.48-17.80 445.48-17Q444.48-16.20 443.74-15.12Q443.00-14.04 442.64-12.76L442.64-12.76L442.64 0L439.92 0L439.92-29.20L442.64-29.20L442.64-16.12Q443.88-18.48 446.08-19.84Q448.28-21.20 450.84-21.20L450.84-21.20Q452.64-21.20 453.88-20.54Q455.12-19.88 455.92-18.70Q456.72-17.52 457.08-15.86Q457.44-14.20 457.44-12.20L457.44-12.20Z"/></g>
</svg>
</g><g opacity="1" transform="rotate(0 69.0338 286.1555)">
<svg width="388.143" height="100" x="69.0338" y="286.1555" version="1.1" preserveAspectRatio="none" viewBox="4.1211 -29.8437 162.38279999999997 41.835899999999995">
  <g transform="matrix(1 0 0 1 0 0)" class="companyName"><path id="id-D6z1nYkh10" d="M32.03-27.64L32.03-27.64L31.39-27.50Q31.17-27.50 31.17-27.77Q31.17-28.05 31.33-28.13L31.33-28.13Q33.20-29.20 34.92-29.20L34.92-29.20Q35.68-29.20 36.08-28.62Q36.48-28.05 36.48-27.08Q36.48-26.11 35.13-23.71Q33.77-21.31 31.50-18.27Q29.24-15.23 25.76-11.63Q22.29-8.03 18.78-5.28Q15.27-2.54 12.51-1.13Q9.75 0.27 7.29 0.27L7.29 0.27Q5.70 0.27 4.91-0.81Q4.12-1.89 4.12-3.27Q4.12-4.65 5.05-6.81Q5.98-8.96 7.29-11.08Q8.59-13.20 10.31-15.55L10.31-15.55Q12.89-19.12 15.72-22.44L15.72-22.44Q12.58-19.82 11.44-19.38Q10.29-18.93 9.46-18.93Q8.63-18.93 8.17-19.62Q7.71-20.31 7.71-21.12Q7.71-21.93 8.37-22.74Q9.02-23.55 9.61-23.55L9.61-23.55Q9.82-23.55 9.82-23.40Q9.82-23.24 9.68-23.04Q9.53-22.83 9.53-22.75L9.53-22.75Q9.53-22.54 9.86-22.54Q10.20-22.54 10.86-22.83Q11.52-23.13 14.15-24.88Q16.78-26.64 18.01-27.79L18.01-27.79Q18.50-28.22 19.40-28.22Q20.31-28.22 21.23-27.78Q22.15-27.34 22.15-26.89L22.15-26.89Q22.15-26.80 22.11-26.71Q22.07-26.62 22.03-26.32Q21.99-26.02 21.73-25.60Q21.46-25.18 17.68-19.88L17.68-19.88Q8.20-6.68 8.20-4.28L8.20-4.28Q8.20-3.40 8.89-3.40L8.89-3.40Q9.82-3.40 12.52-5.11Q15.21-6.82 17.52-8.90Q19.82-10.98 22.05-13.28Q24.28-15.59 26.64-18.30Q29.00-21.02 30.64-23.55Q32.29-26.09 32.29-27.40L32.29-27.40Q32.29-27.64 32.03-27.64Z M41.19-14.88Q41.78-14.88 42.39-14.36Q43.01-13.83 43.01-12.74Q43.01-11.66 42.25-9.93Q41.48-8.20 40.16-6.42Q38.83-4.63 37.24-3.06Q35.64-1.48 33.80-0.48Q31.95 0.53 30.45 0.53Q28.95 0.53 28.04-0.42Q27.13-1.37 27.13-3.06Q27.13-4.75 27.96-6.80Q28.79-8.85 30.10-10.42Q31.41-11.99 32.93-13.24L32.93-13.24Q36.11-15.80 38.52-15.80L38.52-15.80Q39.59-15.80 40.14-15.27L40.14-15.27Q40.33-15.10 40.33-14.96L40.33-14.96L40.33-14.84Q40.61-14.88 41.19-14.88ZM39.22-12.29L39.22-12.29L39.08-12.29Q38.40-12.29 38.40-13.28L38.40-13.28Q36.97-12.81 35.41-11.64Q33.85-10.47 32.62-8.87L32.62-8.87Q30.12-5.66 30.08-3.46L30.08-3.46Q30.08-2.36 30.88-2.36Q31.68-2.36 33.26-3.42Q34.84-4.47 36.40-6.43Q37.95-8.38 38.72-9.81Q39.49-11.25 39.49-11.77Q39.49-12.29 39.22-12.29Z M48.66-12.98Q50.55-14.28 52.36-14.98Q54.18-15.68 55.51-15.68Q56.84-15.68 57.21-14.92L57.21-14.92Q57.97-15.80 59.10-15.86L59.10-15.86Q59.43-15.88 59.92-15.88Q60.41-15.88 60.53-15.75Q60.64-15.63 60.74-15.27Q60.84-14.92 60.86-14.88Q60.88-14.84 60.88-14.76Q60.88-14.67 60.78-14.54Q60.68-14.41 60.56-14.30Q60.43-14.18 60.41-14.16L60.41-14.16Q56.09-7.97 51.58-0.04L51.58-0.04Q56.23-4.16 59.90-5.96L59.90-5.96Q60.14-6.07 60.35-6.07L60.35-6.07Q60.66-6.07 60.76-5.67Q60.86-5.27 60.86-4.53Q60.86-3.79 60.77-3.61Q60.68-3.44 59.86-2.91Q59.04-2.38 57.73-1.54Q56.43-0.70 54.96 0.31L54.96 0.31Q51.45 2.75 49.18 5.45L49.18 5.45Q46.25 8.98 44.98 11.15L44.98 11.15Q44.51 11.99 43.40 11.99L43.40 11.99Q41.19 11.99 41.19 9.90L41.19 9.90Q41.19 7.77 43.28 5.55L43.28 5.55Q44.84 3.89 46.15 2.83Q47.46 1.78 47.58 1.64L47.58 1.64Q49.02-0.53 51.50-4.51L51.50-4.51Q49.39-2.30 47.41-1.00Q45.43 0.31 44.45 0.31L44.45 0.31Q41.46 0.31 41.46-2.25L41.46-2.25Q41.46-4.28 42.50-6.35Q43.54-8.42 45.16-10.05Q46.78-11.68 48.66-12.98ZM56.09-13.48L56.09-13.48Q53.83-12.99 51.84-11.87Q49.84-10.74 48.55-9.46Q47.27-8.18 46.33-6.84L46.33-6.84Q44.57-4.32 44.57-2.93L44.57-2.93Q44.57-2.60 44.74-2.60Q44.90-2.60 45.48-2.95Q46.05-3.30 47.11-4.15Q48.16-5 49.45-6.17L49.45-6.17Q52.44-8.93 56.09-13.48Z M75.86-6.13L75.86-6.13Q76.23-6.13 76.31-5.57Q76.39-5 76.39-4.39Q76.39-3.79 76.27-3.55L76.27-3.55Q75.70-2.46 73.79-0.89Q71.88 0.68 70.16 0.68L70.16 0.68Q69.10 0.68 68.20 0.05Q67.30-0.59 67.30-2.17Q67.30-3.75 68.14-5.27L68.14-5.27Q63.30 0.80 60.55 0.80L60.55 0.80Q59.45 0.80 58.78 0.02Q58.11-0.76 58.11-1.59Q58.11-2.42 58.34-3.31Q58.57-4.20 58.84-4.90Q59.10-5.61 59.62-6.64Q60.14-7.68 60.39-8.14Q60.64-8.61 61.20-9.56Q61.76-10.51 62.67-12.11Q63.57-13.71 64.17-14.48Q64.77-15.25 65.33-15.26Q65.90-15.27 66.33-14.80Q66.76-14.34 66.76-14.04Q66.76-13.75 65.45-11.41L65.45-11.41Q61.58-4.41 61.58-3.26L61.58-3.26Q61.58-2.97 61.80-2.97L61.80-2.97Q62.73-2.97 66.46-7.03Q70.20-11.09 70.78-12.24Q71.37-13.38 71.92-14.16Q72.48-14.94 72.75-15.12L72.75-15.12Q73.59-15.66 74.92-15.70L74.92-15.70Q75.14-15.70 75.25-15.68Q75.37-15.66 75.53-15.35Q75.68-15.04 75.68-14.86L75.68-14.86Q75.51-14.32 74.13-11.95Q72.75-9.59 72.60-9.28L72.60-9.28Q70.29-4.51 70.29-3.07L70.29-3.07Q70.29-2.25 70.92-2.25L70.92-2.25Q72.05-2.40 73.65-4.06L73.65-4.06Q74.24-4.67 74.81-5.29Q75.39-5.92 75.53-6.03Q75.66-6.13 75.86-6.13Z M88.57-14.61L88.57-14.61Q88.57-13.32 87.53-12.34Q86.48-11.37 85.16-11.37L85.16-11.37Q84.73-11.37 84.59-11.57Q84.45-11.78 84.45-12.11Q84.45-12.44 84.53-12.75L84.53-12.75Q83.83-12.52 82.97-12.03Q82.11-11.54 80.86-10.59Q79.61-9.63 79.61-9.16L79.61-9.16Q79.61-9.00 80.07-9.00Q80.53-9.00 81.48-9.33Q82.44-9.65 82.82-9.65Q83.20-9.65 83.32-9.61L83.32-9.61Q83.57-9.47 83.87-9.01Q84.16-8.55 84.16-8.29Q84.16-8.03 83.65-7.60Q83.14-7.17 82.50-6.94Q81.86-6.72 81.64-6.60L81.64-6.60Q77.52-4.30 77.52-3.44L77.52-3.44Q77.52-1.91 80.12-1.91L80.12-1.91Q81.78-1.91 83.46-2.97L83.46-2.97Q84.88-3.87 86.03-4.79Q87.17-5.72 87.47-5.94Q87.77-6.15 87.93-6.15L87.93-6.15Q88.44-6.15 88.44-5.02Q88.44-3.89 88.30-3.53Q88.16-3.16 87.52-2.64L87.52-2.64Q83.34 0.76 79.61 0.76L79.61 0.76Q77.62 0.76 76.43 0.21L76.43 0.21Q74.24-0.78 74.24-2.83L74.24-2.83Q74.24-5.53 77.97-6.91L77.97-6.91Q77.23-7.25 77.01-7.76Q76.80-8.28 76.80-9.42Q76.80-10.57 77.86-11.85Q78.93-13.13 80.47-13.95L80.47-13.95Q83.91-15.80 86.60-15.80L86.60-15.80Q87.25-15.80 87.91-15.49Q88.57-15.18 88.57-14.61Z M113.11-27.91L114.02-27.75L115.45-28.07Q116.00-28.07 116.33-27.83Q116.66-27.60 116.66-27.39Q116.66-27.19 116.56-26.80Q116.46-26.41 114.98-19.18Q113.50-11.95 112.81-8.40L112.81-8.40Q116.13-12.91 120.57-19.51Q125-26.11 125.74-28.28L125.74-28.28Q125.98-28.96 126.35-29.34Q126.72-29.71 127.01-29.78Q127.30-29.84 127.91-29.84Q128.52-29.84 129.35-29.58Q130.18-29.32 130.18-28.71L130.18-28.71Q130.18-27.56 126.76-22.07Q123.34-16.58 118.96-10.41Q114.57-4.24 111.62-0.64L111.62-0.64Q111.09 0 110.34 0Q109.59 0 108.76-0.26Q107.93-0.53 107.93-1.19L107.93-1.19Q107.93-3.34 111.70-21.84L111.70-21.84Q108.48-17.66 103.87-10.20L103.87-10.20Q99.06-2.48 98.44-0.63L98.44-0.63Q98.09 0.49 97.64 0.66L97.64 0.66Q97.32 0.80 96.97 0.80L96.97 0.80L95.43 0.98Q94.98 0.98 94.60 0.72Q94.22 0.47 94.22 0.20L94.22 0.20Q94.22-0.59 96.38-4.47Q98.54-8.36 101.42-12.92Q104.30-17.48 107.44-21.80Q110.59-26.11 112.30-27.60L112.30-27.60Q112.66-27.91 113.11-27.91L113.11-27.91Z M135.45-14.61L135.45-14.61Q135.45-13.32 134.40-12.34Q133.36-11.37 132.03-11.37L132.03-11.37Q131.60-11.37 131.46-11.57Q131.33-11.78 131.33-12.11Q131.33-12.44 131.41-12.75L131.41-12.75Q130.70-12.52 129.84-12.03Q128.98-11.54 127.73-10.59Q126.48-9.63 126.48-9.16L126.48-9.16Q126.48-9.00 126.94-9.00Q127.40-9.00 128.36-9.33Q129.32-9.65 129.70-9.65Q130.08-9.65 130.20-9.61L130.20-9.61Q130.45-9.47 130.74-9.01Q131.04-8.55 131.04-8.29Q131.04-8.03 130.53-7.60Q130.02-7.17 129.38-6.94Q128.73-6.72 128.52-6.60L128.52-6.60Q124.39-4.30 124.39-3.44L124.39-3.44Q124.39-1.91 126.99-1.91L126.99-1.91Q128.65-1.91 130.33-2.97L130.33-2.97Q131.76-3.87 132.90-4.79Q134.04-5.72 134.35-5.94Q134.65-6.15 134.80-6.15L134.80-6.15Q135.31-6.15 135.31-5.02Q135.31-3.89 135.18-3.53Q135.04-3.16 134.39-2.64L134.39-2.64Q130.21 0.76 126.48 0.76L126.48 0.76Q124.49 0.76 123.30 0.21L123.30 0.21Q121.11-0.78 121.11-2.83L121.11-2.83Q121.11-5.53 124.84-6.91L124.84-6.91Q124.10-7.25 123.89-7.76Q123.67-8.28 123.67-9.42Q123.67-10.57 124.74-11.85Q125.80-13.13 127.34-13.95L127.34-13.95Q130.78-15.80 133.48-15.80L133.48-15.80Q134.12-15.80 134.79-15.49Q135.45-15.18 135.45-14.61Z M136.86-3.91L136.86-3.91L136.84-3.59Q136.84-3.11 137.21-2.75Q137.58-2.40 137.89-2.40L137.89-2.40Q140.23-2.40 142.04-3.11Q143.85-3.81 143.85-4.51L143.85-4.51Q143.85-4.84 143.19-5.09Q142.54-5.33 140.99-5.69Q139.43-6.05 138.73-6.26Q138.03-6.46 137.62-6.64Q137.21-6.82 136.78-7.13L136.78-7.13Q135.86-7.77 135.86-9.05Q135.86-10.33 136.81-11.59Q137.75-12.85 139.18-13.75Q140.61-14.65 142.25-15.33L142.25-15.33Q145.49-16.68 147.70-16.68L147.70-16.68Q149.86-16.68 150.37-15.74L150.37-15.74Q150.53-15.41 150.53-15L150.53-15L150.53-14.86Q150.53-13.83 150.09-13.24Q149.65-12.66 148.70-12.19Q147.75-11.72 147.20-11.72Q146.64-11.72 146.49-11.80Q146.35-11.88 146.25-12.00Q146.15-12.13 146.01-12.19Q145.86-12.25 145.86-12.48Q145.86-12.71 146.05-12.96Q146.25-13.20 146.33-13.48L146.33-13.48Q145.04-13.42 143.63-12.88Q142.23-12.34 141.22-11.68Q140.21-11.02 139.55-10.41Q138.89-9.80 138.89-9.52Q138.89-9.24 139.79-9.06L139.79-9.06Q143.83-8.26 145.10-7.68Q146.37-7.09 146.86-6.35Q147.34-5.61 147.34-5L147.34-5Q147.34-3.75 146.35-2.64Q145.35-1.52 143.89-0.82L143.89-0.82Q140.74 0.72 138.41 0.72Q136.07 0.72 135.19 0.01Q134.30-0.70 134.30-1.68Q134.30-2.66 134.79-3.49Q135.29-4.32 136.07-4.32Q136.86-4.32 136.86-3.91Z M161.93-25.04L162.85-25.16L163.65-24.96Q163.83-24.96 163.96-24.79Q164.10-24.61 164.10-24.45Q164.10-24.30 163.69-23.61Q163.28-22.93 162.72-22.06Q162.17-21.19 162.13-21.11L162.13-21.11Q163.65-21.23 164.29-21.23Q164.92-21.23 165.16-21.14Q165.39-21.05 165.69-20.65Q166.00-20.25 166.25-20.05Q166.50-19.84 166.50-19.43Q166.50-19.02 166.01-18.74Q165.51-18.46 164.94-18.40L164.94-18.40Q160.41-17.95 159.94-17.93L159.94-17.93Q158.36-15.51 155.52-10.38Q152.68-5.25 152.50-3.96L152.50-3.96Q152.42-3.38 152.42-3.01L152.42-3.01Q152.42-2.25 153.22-2.25Q154.02-2.25 155-2.86Q155.98-3.48 156.80-4.20L156.80-4.20Q158.98-6.15 159.14-6.15L159.14-6.15Q159.65-6.15 159.65-4.39L159.65-4.39Q159.65-3.44 158.77-2.68L158.77-2.68Q156.80-0.98 155.45-0.12Q154.10 0.74 152.75 0.74L152.75 0.74Q152.46 0.74 152.21 0.68L152.21 0.68Q150.64 0.39 149.91-0.46Q149.18-1.31 149.19-2.75Q149.20-4.20 150.05-6.26Q150.90-8.32 152.19-10.64L152.19-10.64Q154.30-14.43 156.41-17.75L156.41-17.75L155.66-17.66Q153.40-17.40 153.03-17.40L153.03-17.40L152.85-17.40Q152.29-17.40 151.76-17.63Q151.23-17.85 151.23-18.18Q151.23-18.52 151.51-18.83Q151.80-19.14 151.86-19.32L151.86-19.32Q151.99-19.75 152.88-20.27Q153.77-20.80 154.22-20.83Q154.67-20.86 155.09-20.88Q155.51-20.90 156.03-20.92Q156.54-20.94 156.82-20.96L156.82-20.96L158.57-21.04Q160.21-23.50 160.83-24.20Q161.45-24.90 161.54-24.97Q161.64-25.04 161.93-25.04L161.93-25.04Z"/></g>
</svg>
</g><g opacity="1" transform="rotate(0 185.4767 187.6329)">
<svg width="155.2572" height="68.5226" x="185.4767" y="187.6329" version="1.1" preserveAspectRatio="none" viewBox="10.499641418457031 60.49899673461914 179.000732421875 79.00180053710938">
  <g transform="matrix(1 0 0 1 0 0)"><g><path d="M60.176 84.671c-.346-.01-.536-.01-.536-.01.172.357.345.707.519 1.051 10.646 20.963 27.138 17.976 28.111 16.755a.187.187 0 0 0 .047-.105c.004-.299-.002-.593-.015-.882-.668-15.422-24.26-16.703-28.126-16.809z" data-color="1" class="icon1"></path><path d="M96.593 61.19c-.215-.445-.344-.69-.344-.69-.195.258-.382.514-.568.77-14.355 19.763-2.931 33.193-1.914 32.691.096-.048.185-.1.279-.15.31-.164.608-.334.895-.511 12.601-7.78 3.585-28.114 1.652-32.11z" data-color="1" class="icon1"></path><path d="M98.399 70.671c.225-.533-.65-.765-.872-.239-.339.804-1.097 1.509-1.841 2.073.302-3.776.62-7.55.906-11.316-.215-.445-.344-.69-.344-.69-.195.258-.382.514-.568.77-.28 3.654-.597 7.319-.898 10.987-.555-.531-1.057-1.149-1.263-1.834-.166-.553-1.039-.317-.872.239.32 1.064 1.182 1.991 2.042 2.717a478.006 478.006 0 0 0-.428 5.719c-.693-.671-1.329-1.45-1.609-2.311-.178-.548-1.051-.314-.872.239.405 1.248 1.398 2.341 2.4 3.22-.112 1.726-.204 3.45-.28 5.173-.715-.684-1.378-1.481-1.665-2.366-.178-.548-1.051-.314-.872.239.416 1.283 1.455 2.401 2.485 3.292l-.02.439c-.082 2.248.01 4.519.215 6.788.323 3.58.932 7.16 1.619 10.65-2.601-.784-5.024-1.808-7.363-2.981-1.975-.991-3.892-2.086-5.799-3.248a.422.422 0 0 0 .014-.17c-.189-1.505-.55-3.197-1.537-4.398-.368-.448-1.004.191-.639.635.724.881 1.044 2.2 1.215 3.352a329.371 329.371 0 0 1-3.229-2.036c-.523-.333-1.048-.66-1.573-.987 0-.018.007-.032.004-.052-.189-1.505-.55-3.197-1.537-4.398-.368-.448-1.004.191-.639.635.693.843 1.015 2.088 1.192 3.203a343.588 343.588 0 0 0-4.81-2.914c-.171-1.341-.496-2.835-1.373-3.903-.368-.448-1.004.191-.639.635.579.705.862 1.735 1.021 2.678-3.267-1.941-6.543-3.862-9.796-5.84-.346-.01-.536-.01-.536-.01.172.357.345.707.519 1.051 3.053 1.852 6.121 3.667 9.184 5.491-.737.249-1.541.417-2.253.286-.569-.105-.812.761-.24.866 1.153.212 2.384-.128 3.47-.567a445.04 445.04 0 0 1 4.755 2.879c-.968.333-2.026.573-2.983.417-.569-.092-.814.773-.24.866 1.388.225 2.88-.176 4.186-.687.833.515 1.67 1.023 2.499 1.548.767.486 1.527.965 2.286 1.437-.977.338-2.049.585-3.017.428-.569-.092-.814.773-.24.866 1.402.227 2.909-.184 4.224-.702 2.136 1.308 4.271 2.534 6.482 3.625 2.409 1.189 4.91 2.217 7.609 2.995.185.447.944.212.837-.321-.779-3.875-1.451-7.857-1.775-11.841-.175-2.144-.254-4.288-.185-6.418a.512.512 0 0 0 .114-.103c1.227-.85 2.527-1.948 3.114-3.341.225-.533-.65-.765-.872-.239-.422 1-1.402 1.864-2.317 2.532.082-1.675.18-3.35.289-5.027.015-.008.029-.008.044-.019 1.25-.857 2.595-1.975 3.194-3.397.224-.533-.65-.765-.872-.239-.418.992-1.386 1.849-2.293 2.515.134-1.961.282-3.924.436-5.886 1.107-.761 2.277-1.749 2.806-3.005z" data-color="2" class="icon2"></path><path d="M75.127 73.491c.206-.182.326-.307.321-.325-.001-.006-.028-.022-.06-.041a.263.263 0 0 0 .033-.064c-.003-.011-.068-.011-.166-.006-.998-.502-5.88-2.513-7.577-1.002-1.263 1.125-.466 1.959-.171 2.294.008.009.024.012.042.014-.482.669-.096 1.234.282 1.538-.108.498-.215 1.439 1.276 1.797 2.056.496 5.081-2.972 6.02-4.205z" data-color="3" class="icon3"></path><path d="M76.024 73.652a.307.307 0 0 0-.064.032c-.02-.035-.035-.058-.041-.059-.011-.003-.043.054-.084.142-.921.63-5.035 3.928-4.513 6.132.389 1.64 1.507 1.344 1.945 1.247.011-.003.022-.016.033-.03.36.741 1.044.675 1.493.49.388.333 1.168.877 2.198-.253 1.419-1.555-.193-5.856-.835-7.27-.062-.263-.114-.426-.132-.431z" data-color="3" class="icon3"></path><path d="M83.455 74.622c-.961-1.772-5.244-1.774-6.966-1.657.825-.17 1.645-.31 2.486-.538 1.847-.452 3.99-1.269 4.397-2.605.379-1.244-.199-1.707-.679-1.915l-.106-.098-.047.038c-.083-.03-.16-.053-.221-.072-.011-.004-.027.002-.044.01.089-1.191-1.274-1.249-1.53-1.154a3.964 3.964 0 0 1-.1.035c-2.664.882-4.175 4.957-4.449 5.983.056-.778.131-1.548.137-2.356.059-1.891-.156-4.168-1.343-4.918-1.104-.697-1.708-.269-2.039.135l-.124.075.024.055c-.051.072-.094.139-.13.193-.014.021.005.07.007.105.035.701.215 1.445.469 2.179-.509-.588-1.064-1.118-1.656-1.502-.029-.019-.063-.06-.088-.059-.448.021-1.605.031-1.543 1.715.082 2.212 4.725 4.27 5.921 4.702 0 .009.005.024.022.056-.052.009-.083.016-.087.022-.01.015.099.127.29.296.772 1.133 3.393 4.428 5.501 4.656 1.214.131 1.434-.677 1.405-1.236.445-.253 1.221-.803.493-2.145zm-7.28-1.661a1.74 1.74 0 0 1 .005-.072c.019.001.05 0 .087-.002l-.092.074z" data-color="3" class="icon3"></path><path d="M76.697 73.923c-.775.728-1.785.918-2.255.424-.47-.494-.627-1.72.149-2.448s2.28-1.028 2.659-.19c.28.62.222 1.485-.553 2.214z" data-color="2" class="icon2"></path><path d="M75.162 73.236a.362.362 0 1 1-.628.357.362.362 0 0 1 .628-.357z" data-color="4" class="icon1"></path><path d="M76.677 71.828a.362.362 0 1 1-.629.357.362.362 0 0 1 .629-.357z" data-color="4" class="icon1"></path><path d="M76.438 73.216a.316.316 0 0 1-.303.329.316.316 0 0 1-.33-.301.316.316 0 0 1 .303-.328.316.316 0 0 1 .33.3z" data-color="4" class="icon1"></path><path d="M116.913 123.288l-.984-.675c.69-1.783.331-4.225-.785-5.775-1.601-2.223-3.271-3.059-5.667-1.757-2.396 1.302-4.61 4.248-3.009 6.471.977 1.357 2.827 2.613 4.665 3.093l.035 2.022c.012.721 1.005.916 1.292.254l.278-.639a.675.675 0 0 1 1.039-.257l1.042.828c.538.428 1.299-.128 1.048-.767l-.276-.701a.67.67 0 0 1 .783-.895c.726.171 1.152-.782.539-1.202z" data-color="3" class="icon3"></path><path d="M98.9 118.519c-4.344-1.936-10.796-1.889-12.216 2.665-.867 2.779-.673 6.657.592 9.701l-2.789 2.179c-.994.777-.221 2.352 1.007 2.052l1.186-.29a1.173 1.173 0 0 1 1.455 1.164l-.06 2.311c-.031 1.194 1.549 1.658 2.176.64l.69-1.12c.495-.803 1.693-.724 2.076.138.525 1.182 2.307.766 2.248-.525l-.094-2.058c3.219-.926 6.254-4.007 7.244-7.18 1.421-4.556.829-7.741-3.515-9.677z" data-color="3" class="icon3"></path><path d="M68.593 124.257s-4.037 1.5-6.418 4.033c3.213-.834 3.882-.958 3.882-.958s-2.536 3.075-3.249 3.523 3.859-1.388 4.279-2.688c.42-1.301-1.663 3.859-1.663 3.859s4.477-3.555 3.169-7.769z" data-color="2" class="icon2"></path><path d="M50.962 97.702s-2.649-1.612-3.984-3.73c2.158 1.029 2.614 1.208 2.614 1.208s-1.369-2.522-1.812-2.936c-.443-.414 2.162 1.213 2.656 2.486.127.338-.643-2.957-.643-2.957s2.676 3.126 1.169 5.929z" data-color="2" class="icon2"></path><path d="M19.019 101.347s-4.581.192-7.971-1.311c3.496-.505 4.204-.659 4.204-.659s-3.767-1.97-4.652-2.115c-.886-.146 4.36-.228 5.314.874.954 1.102-3.238-3.098-3.238-3.098s5.869 1.641 6.343 6.309z" data-color="2" class="icon2"></path><path d="M174.877 103.531c-7.254-.849-14.634 3.067-21.596 4.646-5.28 1.197-10.703 1.991-16.132 2.109 2.586-2.503 5.171-5.237 8.278-7.07.5-.295.046-1.072-.456-.776-3.372 1.989-6.135 4.997-8.942 7.676a.423.423 0 0 0-.114.183 58.991 58.991 0 0 1-6.385-.32c-4.149-.443-8.176-1.412-12.191-2.515-2.424-.666-4.798-1.485-7.311-1.707-4.439-.392-9.069.113-13.459-.699a.445.445 0 0 0-.225-.008c-6.052 1.343-11.955 3.229-17.991 4.617a60.4 60.4 0 0 1-13.598 1.517.402.402 0 0 0-.127-.263c-2.807-2.678-5.571-5.687-8.942-7.676-.501-.296-.957.481-.456.776 3.137 1.851 5.742 4.62 8.354 7.143a65.54 65.54 0 0 1-3.512-.15c-6.124-.442-12.167-1.666-18.07-3.32-5.289-1.482-10.539-3.916-16.146-3.26-.571.067-.577.966 0 .898 6.165-.722 12.219 2.292 18.077 3.815 5.645 1.467 11.422 2.508 17.253 2.837 8.24.465 15.93-1.211 23.658-3.161-1.726 3.088-4.241 5.771-6.491 8.471-.368.442.268 1.081.639.635 2.475-2.97 5.297-5.934 7.047-9.408 3.443-.879 6.9-1.791 10.422-2.576 4.037.723 8.299.382 12.38.63 2.033.123 4.035.487 6.024.954.008.031.009.061.025.093 1.748 3.48 4.575 6.447 7.054 9.421.371.446 1.008-.193.639-.635-2.28-2.736-4.832-5.455-6.559-8.595 4.113 1.042 8.19 2.42 12.398 2.941 7.447.921 15.01.319 22.35-1.127 3.862-.761 7.671-1.763 11.431-2.921 4.175-1.285 8.229-2.795 12.676-2.275.575.066.57-.833-.002-.9z" data-color="2" class="icon2"></path><path d="M132.293 123.77s4.037 1.5 6.418 4.033c-3.213-.834-3.882-.958-3.882-.958s2.536 3.075 3.249 3.523-3.859-1.388-4.279-2.688c-.42-1.301 1.663 3.859 1.663 3.859s-4.476-3.555-3.169-7.769z" data-color="2" class="icon2"></path><path d="M149.748 97.391s2.649-1.612 3.984-3.73c-2.158 1.029-2.614 1.208-2.614 1.208s1.369-2.522 1.812-2.936c.443-.414-2.538 1.509-2.656 2.486-.118.978.643-2.957.643-2.957s-2.677 3.126-1.169 5.929z" data-color="2" class="icon2"></path><path d="M180.981 100.86s4.581.192 7.971-1.311c-3.496-.505-4.204-.659-4.204-.659s3.767-1.97 4.652-2.115c.886-.146-4.36-.228-5.314.874-.954 1.102 3.238-3.098 3.238-3.098s-5.869 1.64-6.343 6.309z" data-color="2" class="icon2"></path><path d="M135.765 122.574c-.036.172-.882-1.205-.929-1.035-.058.209.681 1.965.605 2.171a8.132 8.132 0 0 1-.829 1.665c-.008.013-.019.024-.027.037-.066.1-1.382-1.295-1.452-1.199-.073.1 1.1 1.692 1.023 1.788a8.234 8.234 0 0 1-.76.82c-.112.106-2.494-.705-2.611-.606-.127.107 2.012 1.122 1.879 1.221a8.069 8.069 0 0 1-1.241.764c-.458.228-2.507.103-2.995.243-.472.135.619.536.13.584a8.185 8.185 0 0 1-5.268-1.274 8.112 8.112 0 0 1-3.685-7.531c.019-.221.635 1.048.674.828.059-.334-.447-2.155-.346-2.483a8.073 8.073 0 0 1 .653-1.533c.056-.101.942 1.08 1 .98.046-.078-.564-1.17-.514-1.246.03-.045-.11-.354-.079-.398a8.134 8.134 0 0 1 1.359-1.532c.083-.073 1.429.862 1.514.794.108-.087-1.044-1.176-.932-1.257a8.138 8.138 0 0 1 1.732-.965c.17-.069 2.466.798 2.64.742.146-.047-1.83-1.018-1.682-1.057a8.196 8.196 0 0 1 6.597 1.028 8.106 8.106 0 0 1 3.544 8.451z" data-color="1" class="icon1"></path><path d="M146.877 94.196c.339-.03-1.035.795-.696.823.417.034 2.544-.715 2.947-.593.308.093.61.211.902.355.132.065-1.287 1.112-1.159 1.186.136.079 1.819-.813 1.95-.721.212.15.414.317.609.497.06.055-.724 1.388-.666 1.445.045.045.934-1.187.977-1.14l.018.018c.335.364.609.76.835 1.175.096.175-.31 1.784-.233 1.965.056.133.599-1.163.645-1.027a5.836 5.836 0 0 1-1.608 6.17 5.901 5.901 0 0 1-4.408 1.521c-.178-.013 1.406-1.252 1.23-1.279-.153-.024-2.067 1.166-2.218 1.129a5.91 5.91 0 0 1-1.203-.441c-.094-.046.873-1.532.781-1.584-.098-.055-1.256 1.323-1.351 1.262a5.847 5.847 0 0 1-1.002-.808c-.053-.054.122-.751.07-.807-.052-.056.072-.161.024-.219-.074-.087-.55.522-.618.432a5.758 5.758 0 0 1-.477-.748c-.114-.21.046-2.065-.04-2.283-.122-.31-.477 1.013-.543.69a5.832 5.832 0 0 1 1.785-5.507 5.863 5.863 0 0 1 3.449-1.511z" data-color="1" class="icon1"></path><path d="M170.618 108.91c-.101-.084 3.79-.344 3.693-.431-.153-.137-4.292-.105-4.434-.253a8.648 8.648 0 0 1-1.28-1.731c-.052-.093 3.396-.986 3.346-1.08-.051-.096-3.599.607-3.645.509a8.583 8.583 0 0 1-.688-2.203c-.009-.052 1.538-1.254 1.53-1.307-.034-.22-1.611.714-1.628.496a8.616 8.616 0 0 1 .063-1.924c.047-.315.414-.682.497-.986.051-.188-.192-.315-.129-.499a8.686 8.686 0 0 1 6.939-5.788c2.253-.34 4.43.22 6.18 1.397.281.189-.764.068-.506.287.275.233 1.851.809 2.094 1.076a8.636 8.636 0 0 1 1.173 1.652c.082.148-1.636.242-1.563.395.07.147 1.931.353 1.993.505.152.374.283.759.383 1.159.035.141-1.177.892-1.148 1.036.019.096 1.28-.417 1.295-.319.004.024.011.047.014.071a8.64 8.64 0 0 1 .059 2.04c-.021.239-1.186 1.304-1.224 1.538-.033.202 1.063-.428 1.015-.231a8.686 8.686 0 0 1-7.152 6.506 8.713 8.713 0 0 1-6.877-1.915z" data-color="1" class="icon1"></path><path d="M128.802 119.114c1.56 1.383 3.066 2.841 4.392 4.451.496.603.935 1.233 1.391 1.847-.062.093-.115.203-.18.292-.077.107-.168.194-.25.296-.661-.911-1.289-1.825-2.036-2.676-1.375-1.565-2.907-2.993-4.485-4.353-1.576-1.359-3.715-2.606-5.285-4.135.076-.067.141-.148.219-.211.115-.093.244-.166.363-.253.467.369.971.706 1.4 1.046 1.516 1.203 3.024 2.413 4.471 3.696z" data-color="4" class="icon1"></path><path d="M129.87 125.48c1.02.531 2.044.907 3.142 1.22.13.037.255.081.383.12-.105.099-.191.207-.3.3-.134.113-.292.21-.432.314-.689-.257-1.33-.549-1.784-.741-2.685-1.139-4.721-2.706-6.595-4.9-.982-1.151-2.762-2.923-3.702-4.761.057-.102.099-.221.158-.323.045-.077.105-.137.155-.213.03-.045.064-.085.094-.129.829 1.896 2.856 3.89 3.771 4.962 1.498 1.754 3.048 3.078 5.11 4.151z" data-color="4" class="icon1"></path><path d="M123.206 124.875c2.153 2.264 5.319 3.858 8.216 3.325a8.065 8.065 0 0 1-1.39.564 8.366 8.366 0 0 1-1.475.263c-3.937-.896-7.708-4.755-8.954-8.805.019-.219.028-.443.066-.66.059-.336.16-.665.261-.996.348 2.355 1.739 4.692 3.276 6.309z" data-color="4" class="icon1"></path><path d="M133.535 118.605c.89 1.153 1.717 2.527 2.23 3.97-.034.164-.054.34-.098.502-.059.217-.147.42-.225.634-.123-.391-.265-.76-.361-1.022-.771-2.088-2.121-4.068-3.802-5.533-2.012-1.754-4.249-2.807-6.614-3.746.18-.073.337-.155.522-.214.136-.043.298-.065.437-.102 3.005 1.259 5.823 2.805 7.911 5.511z" data-color="4" class="icon1"></path><path d="M150.233 97.634c.275-.453.825-1.206 1.195-1.891.063.058.136.103.198.164.042.041.073.098.114.142-1.006 1.633-1.841 3.38-3.061 4.918-1.13 1.424-2.778 2.785-3.882 4.313-.104-.051-.213-.091-.314-.149-.089-.051-.17-.118-.257-.173.842-1.112 2.015-2.108 2.88-3.124 1.132-1.329 2.22-2.709 3.127-4.2z" data-color="4" class="icon1"></path><path d="M149.127 94.425c-1.948.196-4.063 1.657-5.041 2.96-1.065 1.42-1.959 3.51-1.864 5.422-.118-.218-.233-.428-.321-.656a5.959 5.959 0 0 1-.262-.937c.487-2.923 2.627-5.906 5.237-7.018a6.05 6.05 0 0 1 1.042-.024c.413.034.811.133 1.209.253z" data-color="4" class="icon1"></path><path d="M152.594 97.241c.1.184.2.356.279.547.052.124.09.264.132.391-.213.879-.583 1.75-.892 2.4-1.124 2.365-3.017 3.947-5.124 5.29-.183-.013-.361-.014-.542-.043-.149-.024-.3-.072-.447-.107 1.034-.606 2.019-1.243 2.946-2.1 1.279-1.183 3.607-4.116 3.648-6.378z" data-color="4" class="icon1"></path><path d="M145.087 99.245c.971-1.548 2.266-2.785 3.821-3.764.306-.193.697-.455 1.122-.701.135.067.287.127.418.203.133.078.246.172.373.262-.098.048-.196.097-.297.14-.447.221-.861.405-1.287.673-1.728 1.085-2.936 2.441-3.969 4.171-.57.955-1.722 2.518-2.042 3.919-.053-.054-.124-.111-.176-.167a5.812 5.812 0 0 1-.349-.427c.513-1.608 1.762-3.315 2.386-4.309z" data-color="4" class="icon1"></path><path d="M169.877 108.226c2.214.098 4.348.08 6.67-.405a14.97 14.97 0 0 0 6.849-3.402c.435-.381.994-.871 1.46-1.407a9.905 9.905 0 0 1-.21 1.308c-1.184 1.153-2.717 2.097-3.937 2.742-3.218 1.703-6.627 1.948-10.09 1.848-.117-.097-.257-.178-.37-.281-.137-.123-.245-.27-.372-.403z" data-color="4" class="icon1"></path><path d="M181.676 98.08c.552.011 1.336-.003 2.146.045a9.64 9.64 0 0 1 .43.899c-.077-.009-.154-.017-.231-.028-1.101-.158-2.13-.282-3.247-.248-2.752.084-5.018.721-7.492 1.89-1.38.652-4.076 1.654-5.672 3.082-.009-.052-.027-.094-.035-.146-.034-.22-.046-.446-.063-.665 1.938-1.563 4.932-2.623 6.49-3.333 2.431-1.105 4.997-1.548 7.674-1.496z" data-color="4" class="icon1"></path><path d="M168.298 105.923c.454-.113.912-.206 1.336-.312 1.855-.465 3.711-.926 5.546-1.464 2.429-.712 4.846-1.53 7.121-2.644.809-.396 1.559-.87 2.334-1.318.032.13.06.259.086.392.021.107.043.217.061.325-.707.395-1.405.812-2.153 1.179-1.967.963-4.043 1.709-6.132 2.361-1.929.602-3.884 1.11-5.844 1.6-.638.16-1.363.277-2.056.454-.046-.082-.121-.156-.165-.239-.057-.108-.082-.223-.134-.334z" data-color="4" class="icon1"></path><path d="M173.192 95.861c2.269-.932 5.288-1.389 7.869-.751.263.177.547.376.79.579.293.245.54.501.798.784-4.407-2.705-12.114-.078-15.075 4.513.047-.309.08-.612.16-.911.052-.193.143-.385.207-.574 1.443-1.612 3.386-2.874 5.251-3.64z" data-color="4" class="icon1"></path><path d="M65.409 123.173c.038.186 1.022-1.787 1.074-1.603.055.195-.82 2.546-.75 2.739.21.573.48 1.132.829 1.665.009.013.019.024.027.037.066.099 1.668-1.936 1.737-1.841.074.101-1.385 2.332-1.307 2.429.236.295.492.565.76.82.117.111 2.93-.817 3.052-.715.122.102-2.447 1.235-2.32 1.329.393.293.807.549 1.241.764.506.252 3.508.076 4.051.22.422.112-1.62.565-1.185.607a8.185 8.185 0 0 0 5.268-1.274 8.112 8.112 0 0 0 3.685-7.531c-.017-.193-.783 1.138-.815.946-.06-.362.597-2.246.488-2.602a8.073 8.073 0 0 0-.653-1.533c-.099-.18-.832.929-.947.754-.03-.045.57-1.374.539-1.418a8.134 8.134 0 0 0-1.359-1.532c-.093-.082-1.755 1.068-1.851.991-.098-.078 1.37-1.382 1.269-1.455a8.138 8.138 0 0 0-1.732-.965c-.151-.061-2.159.627-2.314.576-.165-.054 1.523-.847 1.356-.892a8.196 8.196 0 0 0-6.597 1.028 8.113 8.113 0 0 0-3.546 8.456z" data-color="1" class="icon1"></path><path d="M54.296 94.795c-.355-.032.969.734.615.765-.401.036-2.478-.653-2.865-.536-.308.093-.61.211-.902.355-.133.065 1.138.918 1.01.993-.135.079-1.671-.619-1.8-.528-.212.15-.414.317-.609.497-.06.056.53 1.046.471 1.104-.045.044-.739-.845-.783-.799l-.018.018c-.335.364-.609.76-.835 1.175-.095.175.18 1.468.103 1.65-.056.133-.469-.848-.514-.712a5.836 5.836 0 0 0 1.608 6.17 5.901 5.901 0 0 0 4.408 1.521c.159-.011-1.95-1.699-1.793-1.722.173-.025 2.612 1.613 2.782 1.571a5.91 5.91 0 0 0 1.203-.441c.094-.046-1.295-1.749-1.203-1.8.099-.056 1.677 1.54 1.773 1.478a5.847 5.847 0 0 0 1.002-.808c.053-.054-.604-2.194-.552-2.25.13-.141.963 1.805 1.076 1.656.182-.239.337-.49.477-.748.134-.247-.133-2.303-.037-2.562.101-.273.562 1.251.62.969a5.832 5.832 0 0 0-1.785-5.507 5.88 5.88 0 0 0-3.452-1.509z" data-color="1" class="icon1"></path><path d="M30.555 109.509c.134-.111-2.474-.452-2.346-.57.119-.11 2.975.003 3.087-.115a8.648 8.648 0 0 0 1.28-1.731c.055-.098-3.468-1.029-3.416-1.129.048-.091 3.671.651 3.715.557a8.583 8.583 0 0 0 .688-2.203c.009-.052-.381-.407-.373-.46.015-.099-.559-.471-.549-.569.012-.121 1.011.338 1.02.218a8.616 8.616 0 0 0-.063-1.924c-.043-.289-1.019-1.392-1.092-1.671-.056-.214.796.395.725.186a8.686 8.686 0 0 0-6.939-5.788 8.708 8.708 0 0 0-6.18 1.397c-.228.154 1.417-.15 1.204.023-.329.267-2.505 1.025-2.792 1.34a8.636 8.636 0 0 0-1.173 1.652c-.07.127 1.341.28 1.278.41-.082.168-1.636.315-1.707.49a8.643 8.643 0 0 0-.383 1.159c-.029.115 1.329.992 1.305 1.108-.025.122-1.431-.516-1.451-.392-.004.024-.011.047-.014.071a8.64 8.64 0 0 0-.059 2.04c.023.27.611.868.657 1.132.03.17-.489.009-.448.176a8.686 8.686 0 0 0 7.152 6.506 8.7 8.7 0 0 0 6.874-1.913z" data-color="1" class="icon1"></path><path d="M72.371 119.713c-1.56 1.383-3.066 2.841-4.392 4.451-.496.603-.935 1.233-1.391 1.847.058.087.091.198.152.282.082.113.192.199.278.307.661-.911 1.289-1.825 2.036-2.676 1.375-1.565 2.907-2.993 4.485-4.353 1.576-1.359 3.715-2.606 5.285-4.135-.095-.083-.176-.172-.275-.251-.096-.076-.208-.142-.307-.213-.467.369-.971.706-1.4 1.046-1.516 1.202-3.024 2.412-4.471 3.695z" data-color="4" class="icon1"></path><path d="M71.303 126.079c-1.02.531-2.044.907-3.142 1.22-.13.037-.255.081-.383.12.109.104.2.225.314.321.129.109.283.193.418.293.689-.257 1.33-.549 1.784-.741 2.685-1.139 4.721-2.706 6.595-4.9.982-1.151 2.762-2.923 3.702-4.761-.059-.107-.108-.223-.17-.329-.043-.072-.097-.135-.144-.206-.03-.045-.064-.085-.094-.129-.829 1.896-2.856 3.89-3.771 4.962-1.497 1.753-3.047 3.077-5.109 4.15z" data-color="4" class="icon1"></path><path d="M77.967 125.474c-2.153 2.264-5.319 3.858-8.216 3.325a8.16 8.16 0 0 0 1.5.598c.44.12.911.184 1.366.229 3.937-.896 7.708-4.755 8.954-8.805-.016-.186-.029-.382-.059-.567a8.083 8.083 0 0 0-.268-1.089c-.349 2.355-1.74 4.692-3.277 6.309z" data-color="4" class="icon1"></path><path d="M67.638 119.204c-.89 1.153-1.717 2.527-2.23 3.97.034.165.022.356.067.519.059.216.179.404.257.617.123-.391.265-.76.361-1.022.771-2.088 2.121-4.068 3.802-5.533 2.012-1.754 4.249-2.807 6.614-3.746-.156-.063-.304-.127-.464-.18-.16-.052-.332-.093-.495-.136-3.006 1.259-5.824 2.805-7.912 5.511z" data-color="4" class="icon1"></path><path d="M50.94 98.233c-.275-.453-.825-1.206-1.195-1.891-.06.056-.12.092-.178.149-.045.044-.09.109-.133.156 1.006 1.633 1.841 3.38 3.061 4.918 1.13 1.424 2.778 2.785 3.882 4.313a5.682 5.682 0 0 0 .57-.323c-.842-1.112-2.015-2.108-2.88-3.124-1.132-1.327-2.22-2.707-3.127-4.198z" data-color="4" class="icon1"></path><path d="M52.046 95.024c1.948.196 4.063 1.657 5.041 2.96 1.065 1.42 1.959 3.51 1.864 5.422.136-.251.245-.449.342-.713.098-.268.184-.603.242-.88-.487-2.923-2.627-5.906-5.237-7.018a6.37 6.37 0 0 0-1.033-.024c-.424.033-.811.13-1.219.253z" data-color="4" class="icon1"></path><path d="M48.579 97.84c-.1.184-.202.354-.281.544-.052.124-.088.267-.13.394.213.879.583 1.75.892 2.4 1.124 2.365 3.017 3.947 5.124 5.29.152-.011.301-.036.452-.057.179-.026.36-.05.536-.093-1.034-.606-2.019-1.243-2.946-2.1-1.278-1.183-3.605-4.116-3.647-6.378z" data-color="4" class="icon1"></path><path d="M56.087 99.844c-.971-1.548-2.266-2.785-3.821-3.764-.306-.193-.697-.455-1.122-.701-.125.062-.283.119-.405.189-.143.083-.249.18-.386.277.098.048.196.097.297.14.447.221.861.405 1.287.673 1.728 1.085 2.936 2.441 3.969 4.171.57.955 1.722 2.518 2.042 3.919.053-.054.121-.116.172-.172.13-.141.239-.272.352-.422-.512-1.609-1.762-3.316-2.385-4.31z" data-color="4" class="icon1"></path><path d="M31.296 108.825c-2.214.098-4.348.08-6.67-.405a14.97 14.97 0 0 1-6.849-3.402c-.435-.381-.994-.871-1.46-1.407.023.272.04.546.087.812.03.168.082.331.123.495 1.184 1.153 2.717 2.097 3.937 2.742 3.218 1.703 6.627 1.948 10.09 1.848.121-.1.271-.203.387-.308.133-.12.231-.246.355-.375z" data-color="4" class="icon1"></path><path d="M19.497 98.679c-.552.011-1.336-.003-2.146.045-.063.115-.131.25-.19.368-.089.18-.164.345-.24.532.077-.009.154-.017.231-.028 1.101-.158 2.13-.282 3.247-.248 2.752.084 5.018.721 7.492 1.89 1.38.652 4.076 1.654 5.672 3.082.009-.052.024-.101.031-.154.014-.091.037-.178.046-.269.013-.128.011-.26.02-.388-1.938-1.563-4.932-2.623-6.49-3.333-2.43-1.106-4.996-1.549-7.673-1.497z" data-color="4" class="icon1"></path><path d="M32.875 106.522c-.454-.113-.912-.206-1.336-.312-1.855-.465-3.711-.926-5.546-1.464-2.429-.712-4.846-1.53-7.121-2.644-.809-.396-1.559-.87-2.334-1.318-.028.113-.07.252-.094.367-.026.124-.033.224-.053.35.707.395 1.405.812 2.153 1.179 1.967.963 4.043 1.709 6.132 2.361 1.929.602 3.884 1.11 5.844 1.6.638.16 1.363.277 2.056.454.058-.103.122-.203.177-.309.045-.086.081-.176.122-.264z" data-color="4" class="icon1"></path><path d="M27.981 96.46c-2.269-.932-5.288-1.389-7.869-.751a8.318 8.318 0 0 0-.63.476 9.037 9.037 0 0 0-.958.888c4.407-2.706 12.114-.078 15.075 4.513-.044-.289-.072-.569-.145-.849-.056-.213-.152-.428-.223-.636-1.442-1.613-3.384-2.875-5.25-3.641z" data-color="4" class="icon1"></path><path d="M115.05 91.626a.24.24 0 0 0-.075.031c-.02-.041-.035-.067-.042-.069-.012-.004-.051.051-.107.153-1.107.659-5.962 4.064-5.539 6.578.316 1.877 1.598 1.625 2.098 1.548.012-.002.024-.013.036-.027.351.862 1.13.833 1.651.659.413.404 1.25 1.071 2.494-.124 1.713-1.646.22-6.604-.398-8.247-.051-.311-.098-.496-.118-.502z" data-color="1" class="icon1"></path><path d="M118.579 91.953l-.083-.082c2.074.26 4.498.242 5.446-.94 1.194-1.488.149-2.268-.243-2.586-.022-.018-.08-.003-.119-.005a7.951 7.951 0 0 0-1.512.076 11.38 11.38 0 0 0-.98.173c.202-.139.397-.284.587-.432a8.16 8.16 0 0 0 1.285-1.223c.025-.03.075-.063.077-.091.03-.502.159-1.794-1.75-1.928-2.477-.174-5.32 4.63-6.001 5.986a1.554 1.554 0 0 0-.118-.031c-.938-.881-5.551-4.604-7.871-3.518-1.732.811-1.142 1.969-.931 2.427.005.011.019.019.036.027-.74.569-.501 1.307-.191 1.758-.279.504-.699 1.486.796 2.353 2.058 1.193 6.456-1.578 7.88-2.615.104-.048.191-.091.261-.128l.009.003a.253.253 0 0 0-.024.077c.005.012.072.003.186-.023a10.04 10.04 0 0 0 .547.15c-.003.01.001.033.012.074-.06-.004-.095-.003-.101.003-.011.011.035.096.13.236.032.048.07.102.113.162a21.8 21.8 0 0 0 1.729 3.384c.484 1.649 1.245 3.199 2.403 3.597 1.367.47 1.924-.122 2.189-.644.243-.231.365-.56.416-.846.554-.167 1.545-.578 1.084-2.236-.449-1.61-3.116-2.617-5.262-3.158zm-2.216-.443c-.032-.011-.065-.023-.095-.032l.242.054c-.051-.009-.099-.015-.147-.022z" data-color="1" class="icon1"></path><path d="M114.842 90.422c.205.238.342.371.363.366.007-.001.024-.026.048-.065.039.025.065.039.072.037.013-.003.016-.07.011-.186.602-1.135 2.97-6.552 1.294-8.481-1.251-1.44-2.215-.563-2.602-.239-.009.008-.013.024-.016.042-.75-.555-1.401-.129-1.755.289-.564-.132-1.628-.269-2.066 1.394-.604 2.293 3.263 5.758 4.651 6.843z" data-color="1" class="icon1"></path><path d="M116.53 90.899c-.23-1.175-1.025-1.753-1.79-1.862-1.034-.147-1.655 1.46-1.425 2.635.23 1.175 1.501 1.767 2.259 1.621.759-.147 1.186-1.219.956-2.394z" data-color="2" class="icon2"></path><path d="M114.942 91.944c.226.01.401.2.391.424a.408.408 0 0 1-.426.387.406.406 0 0 1 .035-.811z" data-color="4" class="icon1"></path><path d="M114.507 89.66c.226.01.401.2.391.424a.408.408 0 0 1-.426.387.406.406 0 0 1 .035-.811z" data-color="4" class="icon1"></path><path d="M115.692 90.713a.357.357 0 1 1-.353.62.357.357 0 0 1 .353-.62z" data-color="4" class="icon1"></path></g></g>
</svg>
</g></svg></svg>