<svg version="1.1" preserveAspectRatio="none" xmlns="http://www.w3.org/2000/svg" width="500" height="500" viewBox="0 0 500 500"><rect width="100%" height="100%" fill="#222222" fill-opacity="1"/><svg viewBox="-16.2498 104.8 492.734 196" width="333" height="132.4609221202515" x="83.5px" y="183.7695px" xmlns="http://www.w3.org/2000/svg" xmlns:xlink="http://www.w3.org/1999/xlink" preserveAspectRatio="none"><defs></defs><style>.a7KDWqqaqfillColor {fill:#ebebeb;fill-opacity:0;}.aZzOTVRhffillColor {fill:#ebebeb;fill-opacity:0;}.companyName {fill:#F3F3F3;fill-opacity:1;}.icon3-str {stroke:#A6A6A6;stroke-opacity:1;}.shapeStroke-str {stroke:#F3F3F3;stroke-opacity:1;}.text {fill:#F3F3F3;fill-opacity:1;}</style><g opacity="1" transform="rotate(0 3.7502 124.8)">
<svg width="472.734" height="176" x="3.7502" y="124.8" version="1.1" preserveAspectRatio="none" viewBox="0 0 472.734 176">
  <defs><rect x="1.3199999999999998" y="1.3199999999999998" width="470.094" height="173.36" rx="0%" ry="0%" id="id-ZzOTVRhf1742730360754"></rect></defs><use class="aZzOTVRhffillColor shapeStroke-str" style="stroke-width:2.6399999999999997;" xlink:href="#id-ZzOTVRhf1742730360754"></use>
</svg>
</g><g opacity="1" transform="rotate(0 -16.2498 104.8)">
<svg width="472.734" height="176" x="-16.2498" y="104.8" version="1.1" preserveAspectRatio="none" viewBox="0 0 472.734 176">
  <defs><rect x="1.3199999999999998" y="1.3199999999999998" width="470.094" height="173.36" rx="0px" ry="0px" id="id-7KDWqqaq1742730360754"></rect></defs><use class="a7KDWqqaqfillColor shapeStroke-str" style="stroke-width:2.6399999999999997;" xlink:href="#id-7KDWqqaq1742730360754"></use>
</svg>
</g><g opacity="1" transform="rotate(0 112.6384 220.8)">
<svg width="234.9576" height="20" x="112.6384" y="220.8" version="1.1" preserveAspectRatio="none" viewBox="4.16 -31 460.96 39.24">
  <g transform="matrix(1 0 0 1 0 0)" class="text"><path id="id-6izo4zJp21" d="M4.16-28.92L22.96-28.92L22.96-25.20L8.04-25.20L8.04-16.40L21.36-16.40L21.36-12.68L8.04-12.68L8.04-3.76L23.52-3.76L23.52 0L4.16 0L4.16-28.92Z M31.76-31L35.48-31L35.48 0L31.76 0L31.76-31Z M52.12-2.80Q54.20-2.80 56.16-4.24L56.16-4.24L57.88-1.48Q56.56-0.60 55.02-0.10Q53.48 0.40 52.04 0.40L52.04 0.40Q49.28 0.40 47.22-0.74Q45.16-1.88 44.04-3.88Q42.92-5.88 42.92-8.40L42.92-8.40Q42.92-10.84 44.14-12.86Q45.36-14.88 47.48-16.06Q49.60-17.24 52.12-17.24L52.12-17.24Q55.36-17.24 57.54-15.34Q59.72-13.44 60.52-10.04L60.52-10.04L47.40-5.44Q48.12-4.20 49.34-3.50Q50.56-2.80 52.12-2.80L52.12-2.80ZM51.84-14.28Q49.56-14.28 48.08-12.68Q46.60-11.08 46.60-8.60L46.60-8.60Q46.60-8 46.64-7.68L46.64-7.68L56.28-11.24Q55.68-12.60 54.58-13.44Q53.48-14.28 51.84-14.28L51.84-14.28Z M81.64-16.56L85.04-16.56L85.04 0.12Q85.04 2.40 83.88 4.24Q82.72 6.08 80.58 7.16Q78.44 8.24 75.56 8.24L75.56 8.24Q73.04 8.24 71.22 7.40Q69.40 6.56 67.56 4.92L67.56 4.92L69.76 2.36Q71.12 3.64 72.48 4.30Q73.84 4.96 75.48 4.96L75.48 4.96Q78.24 4.96 79.74 3.64Q81.24 2.32 81.28 0.08L81.28 0.08L81.32-3.04Q80.40-1.48 78.62-0.54Q76.84 0.40 74.52 0.40L74.52 0.40Q72.24 0.40 70.32-0.76Q68.40-1.92 67.26-3.92Q66.12-5.92 66.12-8.36L66.12-8.36Q66.12-10.88 67.30-12.90Q68.48-14.92 70.48-16.08Q72.48-17.24 74.76-17.24L74.76-17.24Q76.88-17.24 78.68-16.40Q80.48-15.56 81.36-14.24L81.36-14.24L81.64-16.56ZM75.60-2.68Q77.72-2.68 79.28-3.84Q80.84-5 81.32-6.88L81.32-6.88L81.32-10.16Q80.76-11.96 79.20-13.06Q77.64-14.16 75.60-14.16L75.60-14.16Q73.16-14.16 71.52-12.56Q69.88-10.96 69.88-8.48L69.88-8.48Q69.88-6.88 70.64-5.56Q71.40-4.24 72.72-3.46Q74.04-2.68 75.60-2.68L75.60-2.68Z M107.48-16.56L110.92-16.56L110.92 0L107.20 0L107.20-2.72Q106.32-1.56 104.64-0.58Q102.96 0.40 100.84 0.40L100.84 0.40Q98.48 0.40 96.58-0.62Q94.68-1.64 93.58-3.60Q92.48-5.56 92.48-8.28L92.48-8.28Q92.48-11 93.62-13.02Q94.76-15.04 96.70-16.14Q98.64-17.24 101-17.24L101-17.24Q103.12-17.24 104.68-16.32Q106.24-15.40 107.20-13.92L107.20-13.92L107.48-16.56ZM101.84-2.68Q103.88-2.68 105.34-3.82Q106.80-4.96 107.20-6.92L107.20-6.92L107.20-10.20Q106.72-11.96 105.20-13.06Q103.68-14.16 101.72-14.16L101.72-14.16Q100.24-14.16 98.98-13.44Q97.72-12.72 96.98-11.42Q96.24-10.12 96.24-8.48L96.24-8.48Q96.24-6.88 97-5.56Q97.76-4.24 99.04-3.46Q100.32-2.68 101.84-2.68L101.84-2.68Z M130.08-17.20Q132.40-17.20 133.92-15.82Q135.44-14.44 135.48-12.24L135.48-12.24L135.48 0L131.72 0L131.72-10.96Q131.64-12.36 130.88-13.16Q130.12-13.96 128.60-14L128.60-14Q126.40-14 124.96-12.24Q123.52-10.48 123.52-7.76L123.52-7.76L123.52 0L119.80 0L119.80-16.56L123.16-16.56L123.40-13.36Q124.28-15.16 126.04-16.18Q127.80-17.20 130.08-17.20L130.08-17.20Z M157.76-1.56Q156.64-0.64 155.10-0.12Q153.56 0.40 151.96 0.40L151.96 0.40Q149.28 0.40 147.22-0.68Q145.16-1.76 144.02-3.74Q142.88-5.72 142.88-8.32L142.88-8.32Q142.88-10.88 144.08-12.86Q145.28-14.84 147.28-15.92Q149.28-17 151.60-17L151.60-17Q155.40-17 157.88-14.92L157.88-14.92L156-12.48Q155.20-13.08 154.16-13.50Q153.12-13.92 151.92-13.92L151.92-13.92Q150.44-13.92 149.22-13.18Q148-12.44 147.30-11.16Q146.60-9.88 146.60-8.32L146.60-8.32Q146.60-6.76 147.34-5.48Q148.08-4.20 149.36-3.44Q150.64-2.68 152.28-2.68L152.28-2.68Q154.32-2.68 155.84-3.88L155.84-3.88L157.76-1.56Z M172.72-2.80Q174.80-2.80 176.76-4.24L176.76-4.24L178.48-1.48Q177.16-0.60 175.62-0.10Q174.08 0.40 172.64 0.40L172.64 0.40Q169.88 0.40 167.82-0.74Q165.76-1.88 164.64-3.88Q163.52-5.88 163.52-8.40L163.52-8.40Q163.52-10.84 164.74-12.86Q165.96-14.88 168.08-16.06Q170.20-17.24 172.72-17.24L172.72-17.24Q175.96-17.24 178.14-15.34Q180.32-13.44 181.12-10.04L181.12-10.04L168.00-5.44Q168.72-4.20 169.94-3.50Q171.16-2.80 172.72-2.80L172.72-2.80ZM172.44-14.28Q170.16-14.28 168.68-12.68Q167.20-11.08 167.20-8.60L167.20-8.60Q167.20-8 167.24-7.68L167.24-7.68L176.88-11.24Q176.28-12.60 175.18-13.44Q174.08-14.28 172.44-14.28L172.44-14.28Z M238.68-28.80L227.28 1.28L220.52-16L213.12 1.36L201.60-28.80L206.12-28.80L213.60-7.76L218.60-20.88L215.52-28.80L219.36-28.80L227.40-8.20L234.52-28.80L238.68-28.80Z M245.36-16.56L249.08-16.56L249.08 0L245.36 0L245.36-16.56ZM245.08-22.52Q245.08-23.40 245.76-24Q246.44-24.60 247.32-24.60L247.32-24.60Q248.20-24.60 248.86-24Q249.52-23.40 249.52-22.52L249.52-22.52Q249.52-21.64 248.86-21.04Q248.20-20.44 247.32-20.44L247.32-20.44Q246.44-20.44 245.76-21.04Q245.08-21.64 245.08-22.52L245.08-22.52Z M259.56-23.84L263.32-23.84L263.32-16.52L267.84-16.52L267.84-13.56L263.32-13.56L263.32 0L259.56 0L259.56-13.56L256.52-13.56L256.52-16.52L259.56-16.52L259.56-23.84Z M285.04-17.20Q287.36-17.20 288.88-15.82Q290.40-14.44 290.44-12.24L290.44-12.24L290.44 0L286.68 0L286.68-10.96Q286.60-12.36 285.84-13.16Q285.08-13.96 283.56-14L283.56-14Q282.12-14 280.96-13.20Q279.80-12.40 279.14-10.96Q278.48-9.52 278.48-7.76L278.48-7.76L278.48 0L274.76 0L274.76-31L278.40-31L278.40-13.56Q279.32-15.20 281.06-16.20Q282.80-17.20 285.04-17.20L285.04-17.20Z M299.28-16.56L303-16.56L303 0L299.28 0L299.28-16.56ZM299-22.52Q299-23.40 299.68-24Q300.36-24.60 301.24-24.60L301.24-24.60Q302.12-24.60 302.78-24Q303.44-23.40 303.44-22.52L303.44-22.52Q303.44-21.64 302.78-21.04Q302.12-20.44 301.24-20.44L301.24-20.44Q300.36-20.44 299.68-21.04Q299-21.64 299-22.52L299-22.52Z M322.16-17.20Q324.48-17.20 326-15.82Q327.52-14.44 327.56-12.24L327.56-12.24L327.56 0L323.80 0L323.80-10.96Q323.72-12.36 322.96-13.16Q322.20-13.96 320.68-14L320.68-14Q318.48-14 317.04-12.24Q315.60-10.48 315.60-7.76L315.60-7.76L315.60 0L311.88 0L311.88-16.56L315.24-16.56L315.48-13.36Q316.36-15.16 318.12-16.18Q319.88-17.20 322.16-17.20L322.16-17.20Z M372.80 0L368.28 0L361.48-10.68Q361.16-10.64 360.52-10.64L360.52-10.64L356.24-10.64L356.24 0L352.36 0L352.36-28.92L360.08-28.92Q363.04-28.92 365.36-27.88Q367.68-26.84 369.00-24.82Q370.32-22.80 370.32-19.96L370.32-19.96Q370.32-17.28 369.14-15.04Q367.96-12.80 365.52-11.64L365.52-11.64L372.80 0ZM360.44-14.40Q363.56-14.40 364.94-16.04Q366.32-17.68 366.32-19.80L366.32-19.80Q366.32-21.08 365.74-22.32Q365.16-23.56 363.90-24.38Q362.64-25.20 360.72-25.20L360.72-25.20L356.24-25.20L356.24-14.40L360.44-14.40Z M387.48-2.80Q389.56-2.80 391.52-4.24L391.52-4.24L393.24-1.48Q391.92-0.60 390.38-0.10Q388.84 0.40 387.40 0.40L387.40 0.40Q384.64 0.40 382.58-0.74Q380.52-1.88 379.40-3.88Q378.28-5.88 378.28-8.40L378.28-8.40Q378.28-10.84 379.50-12.86Q380.72-14.88 382.84-16.06Q384.96-17.24 387.48-17.24L387.48-17.24Q390.72-17.24 392.90-15.34Q395.08-13.44 395.88-10.04L395.88-10.04L382.76-5.44Q383.48-4.20 384.70-3.50Q385.92-2.80 387.48-2.80L387.48-2.80ZM387.20-14.28Q384.92-14.28 383.44-12.68Q381.96-11.08 381.96-8.60L381.96-8.60Q381.96-8 382.00-7.68L382.00-7.68L391.64-11.24Q391.04-12.60 389.94-13.44Q388.84-14.28 387.20-14.28L387.20-14.28Z M416.48-16.56L419.92-16.56L419.92 0L416.20 0L416.20-2.72Q415.32-1.56 413.64-0.58Q411.96 0.40 409.84 0.40L409.84 0.40Q407.48 0.40 405.58-0.62Q403.68-1.64 402.58-3.60Q401.48-5.56 401.48-8.28L401.48-8.28Q401.48-11 402.62-13.02Q403.76-15.04 405.70-16.14Q407.64-17.24 410.00-17.24L410.00-17.24Q412.12-17.24 413.68-16.32Q415.24-15.40 416.20-13.92L416.20-13.92L416.48-16.56ZM410.84-2.68Q412.88-2.68 414.34-3.82Q415.80-4.96 416.20-6.92L416.20-6.92L416.20-10.20Q415.72-11.96 414.20-13.06Q412.68-14.16 410.72-14.16L410.72-14.16Q409.24-14.16 407.98-13.44Q406.72-12.72 405.98-11.42Q405.24-10.12 405.24-8.48L405.24-8.48Q405.24-6.88 406.00-5.56Q406.76-4.24 408.04-3.46Q409.32-2.68 410.84-2.68L410.84-2.68Z M442.24-1.56Q441.12-0.64 439.58-0.12Q438.04 0.40 436.44 0.40L436.44 0.40Q433.76 0.40 431.70-0.68Q429.64-1.76 428.50-3.74Q427.36-5.72 427.36-8.32L427.36-8.32Q427.36-10.88 428.56-12.86Q429.76-14.84 431.76-15.92Q433.76-17 436.08-17L436.08-17Q439.88-17 442.36-14.92L442.36-14.92L440.48-12.48Q439.68-13.08 438.64-13.50Q437.60-13.92 436.40-13.92L436.40-13.92Q434.92-13.92 433.70-13.18Q432.48-12.44 431.78-11.16Q431.08-9.88 431.08-8.32L431.08-8.32Q431.08-6.76 431.82-5.48Q432.56-4.20 433.84-3.44Q435.12-2.68 436.76-2.68L436.76-2.68Q438.80-2.68 440.32-3.88L440.32-3.88L442.24-1.56Z M459.72-17.20Q462.04-17.20 463.56-15.82Q465.08-14.44 465.12-12.24L465.12-12.24L465.12 0L461.36 0L461.36-10.96Q461.28-12.36 460.52-13.16Q459.76-13.96 458.24-14L458.24-14Q456.80-14 455.64-13.20Q454.48-12.40 453.82-10.96Q453.16-9.52 453.16-7.76L453.16-7.76L453.16 0L449.44 0L449.44-31L453.08-31L453.08-13.56Q454.00-15.20 455.74-16.20Q457.48-17.20 459.72-17.20L459.72-17.20Z"/></g>
</svg>
</g><g opacity="1" transform="rotate(0 43.7502 164.8)">
<svg width="372.734" height="40" x="43.7502" y="164.8" version="1.1" preserveAspectRatio="none" viewBox="1.2 -28.48 269.8 28.96">
  <g transform="matrix(1 0 0 1 0 0)" class="companyName"><path id="id-D6z1nYkh10" d="M5.52-28L1.20-28L12.92 0L15.32 0L26.68-28L24.60-28L15.28-4.96L15.12-4.96L5.52-28Z M29.88-14L29.88-14Q29.88-11.76 30.74-9.22Q31.60-6.68 33.44-4.52Q35.28-2.36 38.12-0.94Q40.96 0.48 44.92 0.48L44.92 0.48Q47.60 0.48 49.78-0.18Q51.96-0.84 53.70-1.96Q55.44-3.08 56.72-4.54Q58-6 58.82-7.62Q59.64-9.24 60.06-10.88Q60.48-12.52 60.48-14L60.48-14Q60.48-16.24 59.56-18.78Q58.64-21.32 56.72-23.48Q54.80-25.64 51.86-27.06Q48.92-28.48 44.92-28.48L44.92-28.48Q40.96-28.48 38.12-27.08Q35.28-25.68 33.44-23.54Q31.60-21.40 30.74-18.84Q29.88-16.28 29.88-14ZM33.80-14L33.80-14Q33.80-16.80 34.66-19.14Q35.52-21.48 37.02-23.16Q38.52-24.84 40.56-25.78Q42.60-26.72 45-26.72L45-26.72Q47.36-26.72 49.46-25.78Q51.56-24.84 53.14-23.16Q54.72-21.48 55.64-19.14Q56.56-16.80 56.56-14L56.56-14Q56.56-11.20 55.64-8.86Q54.72-6.52 53.14-4.84Q51.56-3.16 49.46-2.22Q47.36-1.28 45-1.28L45-1.28Q42.60-1.28 40.56-2.22Q38.52-3.16 37.02-4.84Q35.52-6.52 34.66-8.86Q33.80-11.20 33.80-14Z M92.76 0L92.76-12.48L84.84-12.48L84.84-10.84L89.32-10.84L89.32-3.60Q87.52-2.44 85.64-1.88Q83.76-1.32 81.36-1.32L81.36-1.32Q78.20-1.32 75.84-2.28Q73.48-3.24 71.92-4.94Q70.36-6.64 69.58-8.98Q68.80-11.32 68.80-14.12L68.80-14.12Q68.80-16.88 69.54-19.20Q70.28-21.52 71.76-23.20Q73.24-24.88 75.38-25.80Q77.52-26.72 80.36-26.72L80.36-26.72Q82.24-26.72 83.88-26.32Q85.52-25.92 86.80-25.28Q88.08-24.64 88.90-23.82Q89.72-23 89.96-22.16L89.96-22.16L92.84-22.16Q92.48-23.04 91.62-24.14Q90.76-25.24 89.28-26.20Q87.80-27.16 85.62-27.82Q83.44-28.48 80.48-28.48L80.48-28.48Q77.08-28.48 74.22-27.52Q71.36-26.56 69.28-24.76Q67.20-22.96 66.04-20.34Q64.88-17.72 64.88-14.40L64.88-14.40Q64.88-11.56 65.78-8.90Q66.68-6.24 68.54-4.14Q70.40-2.04 73.28-0.78Q76.16 0.48 80.16 0.48L80.16 0.48Q83.16 0.48 85.48-0.18Q87.80-0.84 89.32-1.64L89.32-1.64L89.32 0L92.76 0Z M102-28L98.36-28L98.36-10.80Q98.36-9.16 98.68-7.18Q99-5.20 100.20-3.50Q101.40-1.80 103.76-0.66Q106.12 0.48 110.20 0.48L110.20 0.48Q112.76 0.48 114.74-0.32Q116.72-1.12 118.06-2.52Q119.40-3.92 120.08-5.78Q120.76-7.64 120.76-9.76L120.76-9.76L120.76-28L119-28L119-11.08Q119-10.20 118.96-9.30Q118.92-8.40 118.72-7.50Q118.52-6.60 118.10-5.72Q117.68-4.84 116.88-3.96L116.88-3.96Q115.44-2.40 113.64-1.84Q111.84-1.28 109.88-1.28L109.88-1.28Q108.20-1.28 106.90-1.80Q105.60-2.32 104.44-3.36L104.44-3.36Q103.52-4.16 103.04-4.96Q102.56-5.76 102.32-6.54Q102.08-7.32 102.04-8.12Q102-8.92 102-9.72L102-9.72L102-28Z M146.84-28L128.76-28L128.76 0L146.84 0L146.84-2.20L132.40-2.20L132.40-13.92L144.80-13.92L144.80-15.76L132.40-15.76L132.40-25.80L146.84-25.80L146.84-28Z M191.24-28L189.40-28L189.40-6.60L189.24-6.60L167.04-28.48L166.84-28.48L166.84 0L168.68 0L168.68-21.40L168.84-21.40L191.04 0.48L191.24 0.48L191.24-28Z M218.92-28L200.84-28L200.84 0L218.92 0L218.92-2.20L204.48-2.20L204.48-13.92L216.88-13.92L216.88-15.76L204.48-15.76L204.48-25.80L218.92-25.80L218.92-28Z M224.32-7.08L221.60-7.08Q221.68-5.36 222.50-3.96Q223.32-2.56 224.74-1.58Q226.16-0.60 228.08-0.06Q230 0.48 232.28 0.48L232.28 0.48Q234.60 0.48 236.46-0.08Q238.32-0.64 239.64-1.68Q240.96-2.72 241.68-4.20Q242.40-5.68 242.40-7.48L242.40-7.48Q242.40-9.96 241.16-11.54Q239.92-13.12 238.06-14.18Q236.20-15.24 234.02-15.96Q231.84-16.68 229.98-17.48Q228.12-18.28 226.88-19.32Q225.64-20.36 225.64-22.08L225.64-22.08Q225.64-23.04 226.06-23.88Q226.48-24.72 227.30-25.34Q228.12-25.96 229.32-26.34Q230.52-26.72 232.08-26.72L232.08-26.72Q234.68-26.72 236.50-25.62Q238.32-24.52 238.64-22.16L238.64-22.16L241.36-22.16Q241.12-23.64 240.28-24.82Q239.44-26 238.16-26.82Q236.88-27.64 235.26-28.06Q233.64-28.48 231.88-28.48L231.88-28.48Q230.04-28.48 228.38-28Q226.72-27.52 225.46-26.60Q224.20-25.68 223.46-24.28Q222.72-22.88 222.72-21.08L222.72-21.08Q222.72-18.72 223.92-17.28Q225.12-15.84 226.94-14.88Q228.76-13.92 230.88-13.24Q233-12.56 234.82-11.70Q236.64-10.84 237.84-9.60Q239.04-8.36 239.04-6.28L239.04-6.28Q239.04-3.68 237.14-2.48Q235.24-1.28 232.08-1.28L232.08-1.28Q229.56-1.28 228.04-1.94Q226.52-2.60 225.72-3.52Q224.92-4.44 224.64-5.42Q224.36-6.40 224.32-7.08L224.32-7.08Z M256.64 0L260.28 0L260.28-25.80L271-25.80L271-28L245.92-28L245.92-25.80L256.64-25.80L256.64 0Z"/></g>
</svg>
</g></svg></svg>