<svg version="1.1" preserveAspectRatio="none" xmlns="http://www.w3.org/2000/svg" width="500" height="500" viewBox="0 0 500 500"><rect width="100%" height="100%" fill="#012B28" fill-opacity="1"/><svg viewBox="399.3823 235.413 371.5084 265.7817" width="333" height="238.23231480095743" x="83.5px" y="130.8838px" xmlns="http://www.w3.org/2000/svg" xmlns:xlink="http://www.w3.org/1999/xlink" preserveAspectRatio="none"><defs></defs><style>.companyName {fill:#EBB42C;fill-opacity:1;}.icon2 {fill:#E7240E;fill-opacity:1;}.icon3 {fill:#B47049;fill-opacity:1;}.icon3-str {stroke:#B47049;stroke-opacity:1;}.text {fill:#EBB42C;fill-opacity:1;}</style><g opacity="1" transform="rotate(0 427.5759 489.7547)">
<svg width="315.1212" height="11.44" x="427.5759" y="489.7547" version="1.1" preserveAspectRatio="none" viewBox="4.32 -26.8 749.16 27.2">
  <g transform="matrix(1 0 0 1 0 0)" class="text"><path id="id-6izo4zJp21" d="M7.52-3L23.44-3L23.44 0L4.32 0L4.32-26.40L22.84-26.40L22.84-23.40L7.52-23.40L7.52-14.88L19.44-14.88L19.44-11.88L7.52-11.88L7.52-3Z M45.04-3L60.16-3L60.16 0L41.84 0L41.84-26.40L45.04-26.40L45.04-3Z M80.96-3L96.88-3L96.88 0L77.76 0L77.76-26.40L96.28-26.40L96.28-23.40L80.96-23.40L80.96-14.88L92.88-14.88L92.88-11.88L80.96-11.88L80.96-3Z M124.84-13.32L136.16-13.32L136.16 0L133.76 0L133.64-3.56Q132.48-1.64 130.38-0.62Q128.28 0.40 125.32 0.40L125.32 0.40Q121.60 0.40 118.84-1.26Q116.08-2.92 114.58-5.98Q113.08-9.04 113.08-13.20L113.08-13.20Q113.08-17.32 114.62-20.40Q116.16-23.48 118.94-25.14Q121.72-26.80 125.40-26.80L125.40-26.80Q129.32-26.80 131.86-25.32Q134.40-23.84 135.96-20.76L135.96-20.76L133.04-19.16Q132.16-21.40 130.18-22.60Q128.20-23.80 125.40-23.80L125.40-23.80Q122.72-23.80 120.70-22.52Q118.68-21.24 117.56-18.86Q116.44-16.48 116.44-13.20L116.44-13.20Q116.44-8.16 118.76-5.38Q121.08-2.60 125.44-2.60L125.44-2.60Q128.88-2.60 131.06-4.36Q133.24-6.12 133.24-9.40L133.24-9.40L133.24-10.32L124.84-10.32L124.84-13.32Z M173.28 0L170.48-7.32L158.52-7.32L155.72 0L152.36 0L162.64-26.40L166.44-26.40L176.68 0L173.28 0ZM159.68-10.32L169.32-10.32L165.76-19.68L164.52-23.36L164.44-23.36L163.28-19.80L159.68-10.32Z M214.76-26.40L214.76 0L210.80 0L199.76-17.68L196.96-22.88L196.92-22.88L197.08-18.64L197.08 0L194.04 0L194.04-26.40L198-26.40L209-8.80L211.84-3.52L211.88-3.52L211.72-7.76L211.72-26.40L214.76-26.40Z M256.68-6.76Q255.44-3.40 252.60-1.50Q249.76 0.40 246.04 0.40L246.04 0.40Q242.32 0.40 239.56-1.26Q236.80-2.92 235.30-5.98Q233.80-9.04 233.80-13.20L233.80-13.20Q233.80-17.32 235.30-20.40Q236.80-23.48 239.56-25.14Q242.32-26.80 245.96-26.80L245.96-26.80Q249.76-26.80 252.34-25.24Q254.92-23.68 256.20-20.64L256.20-20.64L253.04-19.16Q252.16-21.48 250.48-22.64Q248.80-23.80 246.20-23.80L246.20-23.80Q243.48-23.80 241.44-22.54Q239.40-21.28 238.28-18.88Q237.16-16.48 237.16-13.20L237.16-13.20Q237.16-8.24 239.54-5.42Q241.92-2.60 246.04-2.60L246.04-2.60Q248.72-2.60 250.68-3.96Q252.64-5.32 253.48-7.96L253.48-7.96L256.68-6.76Z M278.04-3L293.96-3L293.96 0L274.84 0L274.84-26.40L293.36-26.40L293.36-23.40L278.04-23.40L278.04-14.88L289.96-14.88L289.96-11.88L278.04-11.88L278.04-3Z M350.56-17.12L345.92 0L341.96 0L334.16-26.40L337.60-26.40L343.96-2.52L350.20-26.40L353.84-26.40L360.08-2.44L366.48-26.40L369.72-26.40L361.96 0L358 0L353.32-17.12L351.96-23.08L351.92-23.08L350.56-17.12Z M390.68-26.40L390.68 0L387.48 0L387.48-26.40L390.68-26.40Z M429.88-26.40L429.88-23.40L420.68-23.40L420.68 0L417.48 0L417.48-23.40L408.28-23.40L408.28-26.40L429.88-26.40Z M465.00-26.40L468.20-26.40L468.20 0L465.00 0L465.00-11.88L450.68-11.88L450.68 0L447.48 0L447.48-26.40L450.68-26.40L450.68-14.88L465.00-14.88L465.00-26.40Z M492.04-26.40L492.04 0L488.84 0L488.84-26.40L492.04-26.40Z M533.40-26.40L533.40 0L529.44 0L518.40-17.68L515.60-22.88L515.56-22.88L515.72-18.64L515.72 0L512.68 0L512.68-26.40L516.64-26.40L527.64-8.80L530.48-3.52L530.52-3.52L530.36-7.76L530.36-26.40L533.40-26.40Z M596.40 0L589.20-10.96L582.88-10.96L582.88 0L579.68 0L579.68-26.40L589.68-26.40Q593.72-26.40 596.16-24.32Q598.60-22.24 598.60-18.68L598.60-18.68Q598.60-15.88 597.04-13.96Q595.48-12.04 592.76-11.32L592.76-11.32L600.20 0L596.40 0ZM582.88-23.40L582.88-13.96L589.64-13.96Q595.24-13.96 595.24-18.68L595.24-18.68Q595.24-23.40 589.64-23.40L589.64-23.40L582.88-23.40Z M621.48-3L637.40-3L637.40 0L618.28 0L618.28-26.40L636.80-26.40L636.80-23.40L621.48-23.40L621.48-14.88L633.40-14.88L633.40-11.88L621.48-11.88L621.48-3Z M673.44 0L670.64-7.32L658.68-7.32L655.88 0L652.52 0L662.80-26.40L666.60-26.40L676.84 0L673.44 0ZM659.84-10.32L669.48-10.32L665.92-19.68L664.68-23.36L664.60-23.36L663.44-19.80L659.84-10.32Z M714.60-6.76Q713.36-3.40 710.52-1.50Q707.68 0.40 703.96 0.40L703.96 0.40Q700.24 0.40 697.48-1.26Q694.72-2.92 693.22-5.98Q691.72-9.04 691.72-13.20L691.72-13.20Q691.72-17.32 693.22-20.40Q694.72-23.48 697.48-25.14Q700.24-26.80 703.88-26.80L703.88-26.80Q707.68-26.80 710.26-25.24Q712.84-23.68 714.12-20.64L714.12-20.64L710.96-19.16Q710.08-21.48 708.40-22.64Q706.72-23.80 704.12-23.80L704.12-23.80Q701.40-23.80 699.36-22.54Q697.32-21.28 696.20-18.88Q695.08-16.48 695.08-13.20L695.08-13.20Q695.08-8.24 697.46-5.42Q699.84-2.60 703.96-2.60L703.96-2.60Q706.64-2.60 708.60-3.96Q710.56-5.32 711.40-7.96L711.40-7.96L714.60-6.76Z M750.28-26.40L753.48-26.40L753.48 0L750.28 0L750.28-11.88L735.96-11.88L735.96 0L732.76 0L732.76-26.40L735.96-26.40L735.96-14.88L750.28-14.88L750.28-26.40Z"/></g>
</svg>
</g><g opacity="1" transform="rotate(0 399.3823 429.7547)">
<svg width="371.5084" height="26" x="399.3823" y="429.7547" version="1.1" preserveAspectRatio="none" viewBox="1.2 -28.48 413.8 28.96">
  <g transform="matrix(1 0 0 1 0 0)" class="companyName"><path id="id-D6z1nYkh10" d="M5.52-28L1.20-28L12.92 0L15.32 0L26.68-28L24.60-28L15.28-4.96L15.12-4.96L5.52-28Z M45.88-14L45.88-14Q45.88-11.76 46.74-9.22Q47.60-6.68 49.44-4.52Q51.28-2.36 54.12-0.94Q56.96 0.48 60.92 0.48L60.92 0.48Q63.60 0.48 65.78-0.18Q67.96-0.84 69.70-1.96Q71.44-3.08 72.72-4.54Q74-6 74.82-7.62Q75.64-9.24 76.06-10.88Q76.48-12.52 76.48-14L76.48-14Q76.48-16.24 75.56-18.78Q74.64-21.32 72.72-23.48Q70.80-25.64 67.86-27.06Q64.92-28.48 60.92-28.48L60.92-28.48Q56.96-28.48 54.12-27.08Q51.28-25.68 49.44-23.54Q47.60-21.40 46.74-18.84Q45.88-16.28 45.88-14ZM49.80-14L49.80-14Q49.80-16.80 50.66-19.14Q51.52-21.48 53.02-23.16Q54.52-24.84 56.56-25.78Q58.60-26.72 61-26.72L61-26.72Q63.36-26.72 65.46-25.78Q67.56-24.84 69.14-23.16Q70.72-21.48 71.64-19.14Q72.56-16.80 72.56-14L72.56-14Q72.56-11.20 71.64-8.86Q70.72-6.52 69.14-4.84Q67.56-3.16 65.46-2.22Q63.36-1.28 61-1.28L61-1.28Q58.60-1.28 56.56-2.22Q54.52-3.16 53.02-4.84Q51.52-6.52 50.66-8.86Q49.80-11.20 49.80-14Z M124.76 0L124.76-12.48L116.84-12.48L116.84-10.84L121.32-10.84L121.32-3.60Q119.52-2.44 117.64-1.88Q115.76-1.32 113.36-1.32L113.36-1.32Q110.20-1.32 107.84-2.28Q105.48-3.24 103.92-4.94Q102.36-6.64 101.58-8.98Q100.80-11.32 100.80-14.12L100.80-14.12Q100.80-16.88 101.54-19.20Q102.28-21.52 103.76-23.20Q105.24-24.88 107.38-25.80Q109.52-26.72 112.36-26.72L112.36-26.72Q114.24-26.72 115.88-26.32Q117.52-25.92 118.80-25.28Q120.08-24.64 120.90-23.82Q121.72-23 121.96-22.16L121.96-22.16L124.84-22.16Q124.48-23.04 123.62-24.14Q122.76-25.24 121.28-26.20Q119.80-27.16 117.62-27.82Q115.44-28.48 112.48-28.48L112.48-28.48Q109.08-28.48 106.22-27.52Q103.36-26.56 101.28-24.76Q99.20-22.96 98.04-20.34Q96.88-17.72 96.88-14.40L96.88-14.40Q96.88-11.56 97.78-8.90Q98.68-6.24 100.54-4.14Q102.40-2.04 105.28-0.78Q108.16 0.48 112.16 0.48L112.16 0.48Q115.16 0.48 117.48-0.18Q119.80-0.84 121.32-1.64L121.32-1.64L121.32 0L124.76 0Z M150-28L146.36-28L146.36-10.80Q146.36-9.16 146.68-7.18Q147-5.20 148.20-3.50Q149.40-1.80 151.76-0.66Q154.12 0.48 158.20 0.48L158.20 0.48Q160.76 0.48 162.74-0.32Q164.72-1.12 166.06-2.52Q167.40-3.92 168.08-5.78Q168.76-7.64 168.76-9.76L168.76-9.76L168.76-28L167-28L167-11.08Q167-10.20 166.96-9.30Q166.92-8.40 166.72-7.50Q166.52-6.60 166.10-5.72Q165.68-4.84 164.88-3.96L164.88-3.96Q163.44-2.40 161.64-1.84Q159.84-1.28 157.88-1.28L157.88-1.28Q156.20-1.28 154.90-1.80Q153.60-2.32 152.44-3.36L152.44-3.36Q151.52-4.16 151.04-4.96Q150.56-5.76 150.32-6.54Q150.08-7.32 150.04-8.12Q150-8.92 150-9.72L150-9.72L150-28Z M210.84-28L192.76-28L192.76 0L210.84 0L210.84-2.20L196.40-2.20L196.40-13.92L208.80-13.92L208.80-15.76L196.40-15.76L196.40-25.80L210.84-25.80L210.84-28Z M287.24-28L285.40-28L285.40-6.60L285.24-6.60L263.04-28.48L262.84-28.48L262.84 0L264.68 0L264.68-21.40L264.84-21.40L287.04 0.48L287.24 0.48L287.24-28Z M330.92-28L312.84-28L312.84 0L330.92 0L330.92-2.20L316.48-2.20L316.48-13.92L328.88-13.92L328.88-15.76L316.48-15.76L316.48-25.80L330.92-25.80L330.92-28Z M352.32-7.08L349.60-7.08Q349.68-5.36 350.50-3.96Q351.32-2.56 352.74-1.58Q354.16-0.60 356.08-0.06Q358 0.48 360.28 0.48L360.28 0.48Q362.60 0.48 364.46-0.08Q366.32-0.64 367.64-1.68Q368.96-2.72 369.68-4.20Q370.40-5.68 370.40-7.48L370.40-7.48Q370.40-9.96 369.16-11.54Q367.92-13.12 366.06-14.18Q364.20-15.24 362.02-15.96Q359.84-16.68 357.98-17.48Q356.12-18.28 354.88-19.32Q353.64-20.36 353.64-22.08L353.64-22.08Q353.64-23.04 354.06-23.88Q354.48-24.72 355.30-25.34Q356.12-25.96 357.32-26.34Q358.52-26.72 360.08-26.72L360.08-26.72Q362.68-26.72 364.50-25.62Q366.32-24.52 366.64-22.16L366.64-22.16L369.36-22.16Q369.12-23.64 368.28-24.82Q367.44-26 366.16-26.82Q364.88-27.64 363.26-28.06Q361.64-28.48 359.88-28.48L359.88-28.48Q358.04-28.48 356.38-28Q354.72-27.52 353.46-26.60Q352.20-25.68 351.46-24.28Q350.72-22.88 350.72-21.08L350.72-21.08Q350.72-18.72 351.92-17.28Q353.12-15.84 354.94-14.88Q356.76-13.92 358.88-13.24Q361-12.56 362.82-11.70Q364.64-10.84 365.84-9.60Q367.04-8.36 367.04-6.28L367.04-6.28Q367.04-3.68 365.14-2.48Q363.24-1.28 360.08-1.28L360.08-1.28Q357.56-1.28 356.04-1.94Q354.52-2.60 353.72-3.52Q352.92-4.44 352.64-5.42Q352.36-6.40 352.32-7.08L352.32-7.08Z M400.64 0L404.28 0L404.28-25.80L415-25.80L415-28L389.92-28L389.92-25.80L400.64-25.80L400.64 0Z"/></g>
</svg>
</g><g opacity="1" transform="rotate(0 535.1365 235.413)">
<svg width="100" height="134.3417" x="535.1365" y="235.413" version="1.1" preserveAspectRatio="none" viewBox="7919.7197265625 336.96112060546875 44160.58203125 59326.078125">
  <g transform="matrix(1 0 0 1 0 0)" class="companyName"><defs></defs><g><path class="fil0" d="M35859.72 19313.52c-50.91,-214.87 82,-430.34 296.87,-481.25 214.87,-50.91 430.34,82 481.25,296.87 899.47,3777.89 2456.67,7821.57 3657.45,10939.74 337.48,876.38 649.29,1686.09 844.93,2213.68 131.11,353.58 232.3,697.78 300,1029.98 145.15,712.19 124.33,1347.12 -98.5,1876.15 -233.5,554.38 -672.88,975.2 -1354.72,1228.03 -6.96,2.58 -13.95,4.94 -20.95,7.11 -162.07,58.85 -341.34,108.63 -538.46,148.8 -352.33,71.81 -714.14,82.67 -1070.53,29.27 -222.83,-33.39 -444.28,-91.56 -660.79,-175.28 -12.9,-4.34 -25.69,-9.38 -38.33,-15.12 -100,-40.18 -198.89,-85.84 -296.32,-137.07 -278.4,-117.64 -501.07,-176.24 -681.99,-194.4 -202.6,-20.34 -346.48,11.11 -457.17,62.94 -97.74,45.76 -188.9,94.34 -275.44,144.16 -88.63,51.03 -175.89,105.4 -261.45,160.06 -464.29,296.6 -887.96,503.73 -1315.53,601.72 -451.25,103.43 -895.88,85.84 -1377.94,-75.04 -592.8,-197.84 -1045.16,-488.27 -1314.51,-814.5 -187.45,-227.02 -292.54,-475.5 -304.88,-731.42 -12.94,-268.36 74.15,-529.01 272.38,-765.61 225.93,-269.65 604.25,-507.2 1153.2,-679.28 267.16,-83.75 557.81,-136.69 852.58,-149.54 279.66,-12.19 561.44,11.67 828.95,79.35 528.93,133.84 1092.47,451.1 1954.6,936.48 367.49,206.88 790.39,445 1265.63,700.78 92.51,39.51 188.84,83.93 289.15,133.65 158.64,60.79 320.64,103.1 483.48,127.5 268.31,40.2 537.13,32.75 795.53,-19.91 150.82,-30.73 291.67,-70.07 422.84,-117.54 5.86,-2.5 11.8,-4.87 17.83,-7.11 461.46,-171.11 752.3,-440.39 898.46,-787.41 156.84,-372.35 165.18,-850.22 51.62,-1407.39 -57.15,-280.42 -147.9,-585.37 -268.74,-911.24 -295.23,-796.18 -556.18,-1473.78 -838.69,-2207.42 -1212.81,-3149.41 -2785.61,-7233.62 -3691.81,-11039.74zm786.53 -17043.46c74.96,-115.41 229.31,-148.2 344.72,-73.24 115.41,74.96 148.2,229.31 73.24,344.72 -190.22,291.97 -224.14,358.03 -314.66,534.36 -41.75,81.32 -92.89,180.96 -134.59,259.64 -64.18,121.88 -215.03,168.67 -336.91,104.49 -121.88,-64.18 -168.67,-215.03 -104.49,-336.91 75.25,-141.99 106.73,-203.33 132.63,-253.78 100.97,-196.69 138.8,-270.37 340.06,-579.28zm-1260.7 2610.01c44.76,-130.52 186.86,-200.04 317.38,-155.28 130.52,44.76 200.04,186.86 155.28,317.38 -133.16,388.22 -249.17,790.26 -350.93,1212.42 -102.68,425.94 -193.85,883.36 -276.26,1377.77 -22.65,135.91 -151.2,227.72 -287.11,205.07 -135.91,-22.65 -227.72,-151.2 -205.07,-287.11 82.71,-496.21 176.39,-964.31 284.06,-1410.97 108.59,-450.46 228.53,-868.26 362.65,-1259.28zm-897.2 -2680.3c-605.09,-16.49 -962.2,43.84 -1155.72,419.85 -440.78,856.45 -679.05,2352.81 -387.47,4179.74 39.73,248.91 89.35,503.63 149.66,763.37 -3.28,-105.23 -4.82,-211.75 -4.54,-319.72 2.95,-1122.35 293.53,-2613.21 840.18,-3926.07 162.81,-391.02 349,-767.9 557.89,-1117.17zm-379.51 9771.73c-1111.73,-1775 -1706.21,-3512.2 -1951.18,-5047.14 -320.41,-2007.58 -40.58,-3686.87 465.59,-4670.36 477.23,-927.26 1155.54,-896.24 2406.26,-828.14 258.57,-313.58 541.99,-584.27 849.6,-795.98 716.75,-493.29 1004.22,-277.58 1400.85,20.07 211.24,158.51 482.36,361.96 1135.51,251.56 336.64,-56.88 611.65,-31.27 838.11,194.18 150.74,150.08 244.18,373.78 275.29,709.84 499.92,-75.96 939.45,-36.86 1321,172.54 492.98,270.56 845.29,801.67 1047.1,1704.25 52.52,234.9 78.64,450.42 81.57,650 419.25,397.78 628.09,861.19 666.13,1364.31 38.14,504.56 -100.43,1036.67 -372.41,1571.12 -256.65,504.32 -635.52,1015.86 -1096.57,1509.7 -1588.77,1701.75 -4205.21,3223.04 -6125.99,3482.85 167.99,500.57 341.49,1035.45 513.4,1630.53 61.27,211.42 -60.45,432.48 -271.87,493.75 -211.42,61.27 -432.48,-60.45 -493.75,-271.87 -222.83,-771.33 -463.35,-1479.37 -688.64,-2141.21zm1143.78 -3355.91c15.88,-20.45 33.98,-39.65 54.31,-57.24l27.69 -23.81c87.62,-83.26 180.09,-160.26 277.44,-232.57 203.57,-167.04 401.31,-322.17 598.1,-476.57 704.46,-552.71 1396.93,-1096.02 1985.9,-1871.75 545.39,-718.29 546.38,-2322.96 547.16,-3611.95 0.04,-86.89 0.11,-172.44 0.32,-256.27 0.69,-262.46 -17.44,-389.26 -52.46,-424.12 -2.22,-2.21 -54.23,12.48 -144.35,27.7 -987.35,166.89 -1413.14,-152.62 -1744.89,-401.56 -130.78,-98.14 -225.58,-169.26 -469.61,-1.31 -691.42,475.88 -1253.16,1349.71 -1664.27,2337.06 -508.06,1220.2 -778.1,2593.71 -780.8,3619.81 -2.91,1107.31 211.44,2074.22 521.84,3088.08 187.51,-802.89 467.7,-1326.8 843.62,-1715.5zm4287.14 -6003.36c-3.46,1355.68 -46.28,2949.43 -709.32,3822.68 -107.18,141.17 -216.26,274.47 -326.94,401.3 419.89,-221.78 820.99,-443.81 1168.82,-655.22 422.22,-256.62 773.69,-500.88 995.41,-714.51 205.19,-197.71 364.36,-405.31 446.14,-650.73 83.63,-250.96 94.94,-559.17 4.98,-961.55 -146.06,-653.25 -364.41,-1017.55 -653.36,-1176.13 -235.42,-129.2 -547.06,-137.57 -925.73,-65.84zm2208.84 2742.93c-132.34,258.42 -313.54,479.92 -527.75,686.32 -263.82,254.19 -663.34,533.48 -1136.03,820.77 -463.52,281.73 -989.11,567.57 -1521,842.93 -409.99,212.27 -791.19,382.8 -1138.9,538.34 -1341.78,600.25 -2124.45,950.79 -2393.63,3212.8 1739.41,-264.07 4101.54,-1660.44 5560.02,-3222.63 410.66,-439.86 745.51,-890.37 968.45,-1328.44 207.6,-407.93 314.54,-798.62 288.03,-1149.24 -10.46,-138.31 -42.78,-272.38 -99.19,-400.85zm-11193.78 49651.29c-32.37,21.28 -66.71,37.21 -101.97,48.03 -123.08,70.03 -246.1,134.2 -368.61,191.2 584.92,160.89 1160.9,260.01 1733.91,287.01 772.99,36.42 1429.32,-59.83 2064.91,-243.25 515.79,-148.85 1032.96,-361.02 1592.33,-608.55 -316.47,-457.17 -700.59,-813.27 -1270.15,-963.77 -267.46,-70.67 -560.02,-70.51 -864.46,-20.26 -11.01,2.36 -22.05,4.25 -33.08,5.65 -288.12,50.83 -586.41,145.62 -883.79,267.09 -664.15,271.28 -1323.21,676.91 -1869.09,1036.85zm-501.02 -613.86c18.98,-19.03 40.17,-36.42 63.52,-51.76 166.82,-110 344.03,-224.18 529.23,-338.13 1017.44,-749.81 2060.15,-1890.33 2714.06,-2605.61 181.47,-198.52 46.07,-52.58 194.21,-213.56 260.14,-282.67 483.85,-495.53 703.07,-675.37 221.69,-181.87 430.39,-323.33 661.45,-464.09 125.52,-76.47 431.5,-248.32 846.49,-373.41 -354.03,-198.02 -658.84,-393.73 -876.87,-559.06 10.47,13.51 20.19,27.83 29.07,42.97 111.31,189.84 47.65,434 -142.19,545.31 -190.76,111.6 -320.13,185.48 -439.23,253.47 -673.92,384.78 -1044.74,596.5 -1672.23,1278.36 -280.31,304.59 -539.47,573.6 -788.91,818.4 -249.21,244.56 -484.72,460.67 -718.01,659.72 -826.02,704.77 -1772.14,1310.43 -2791.97,1573.35 -166.1,42.82 -333.76,76.55 -502.77,100.2 223.92,108.69 445.7,210.88 665.56,305.94 35.18,1.29 70.78,7.27 105.97,18.42 403.02,128.13 896.5,-17.03 1419.55,-315.15zm2939.78 -1439.12c52.93,-11.79 105.81,-22.53 158.6,-32.14 2286.4,-847.06 4894.7,-754.36 7167.1,187.26 2157.78,894.13 4016.14,2551.52 5015.89,4894.65 10.44,24.55 18.22,49.56 23.5,74.71 18.43,25.53 34.14,53.65 46.49,84.14 151.56,372.73 222.01,665.92 214.03,881.35 -7.45,201.13 -76.02,358.35 -204.54,472.16 -132.32,117.2 -298.38,164.24 -497.45,142.15 -202.77,-22.5 -459.75,-128.12 -768.8,-314.64 -473.01,-285.45 -913.07,-549.36 -1332.53,-689.12 -389.53,-129.79 -787.04,-161.62 -1228.62,-16.02 -473.34,156.08 -885.98,276.09 -1265.67,222.24 -455.28,-64.55 -792.28,-334.79 -985.28,-973.75 -3.2,-10.61 -51.69,-177.61 -105.25,-361.28 -127.6,-437.54 -242.7,-832.19 -385.9,-1089.89 -131.98,-237.52 -329.45,-322.73 -714.55,-108.73 -377.77,209.94 -686.58,362.82 -1016.65,345.84 -375.57,-19.32 -680.12,-232.84 -955.24,-769.46l-78.97 -153.91 -0.95 0.48c27.03,53.1 43.14,84.66 -0.04,0.02 -65.04,-127.47 -129.31,-253.41 -194.28,-376.49 -612.44,272.54 -1181.62,508.57 -1782.65,682.02 -716.46,206.77 -1454.61,315.34 -2321.17,274.51 -2126.83,-100.21 -4222.78,-1074.86 -6588.12,-2512.15 -9.44,-5.67 -18.89,-11.44 -28.34,-17.19 -1091.37,-664.26 -2240.22,-1426.44 -3476.06,-2246.39l-148.82 -98.73c-4807.74,-3189.45 -7952.81,-7738.42 -9736.68,-12718.87 -1656.81,-4625.7 -2138.04,-9626.36 -1685.88,-14253.18 195.26,-1998 564.96,-3927.2 1089.31,-5727.72 -1454.01,-823.32 -2677.74,-1527.68 -3087.24,-1764.18 -190.7,-110.45 -255.76,-354.61 -145.31,-545.31 110.45,-190.7 354.61,-255.76 545.31,-145.31 396.31,228.87 1548.52,892.14 2927.01,1673.76 668.4,-2068.68 1546.26,-3947.72 2602.29,-5539.57 1563.33,-2356.55 3519.41,-4091.57 5769.68,-4897.56 3466.71,-1241.69 6156.93,1065.65 9148.52,3631.49 1655.4,1419.81 3408.01,2922.63 5423.48,3899.76 23.74,4.05 47.45,10.27 70.87,18.86 741.19,274.37 1401.99,480.79 2050.41,535.78 630.45,53.46 1263.34,-35.64 1973.33,-345.65 1255.01,-548 1654.79,-1760.58 2092.98,-3089.72 32.53,-98.68 18.93,-57.41 0.09,0.03l0.95 0.31 71.51 -215.21c232.88,-701.86 554.42,-1016.11 991.87,-1106.96 394.54,-81.94 807.98,49.52 1319.74,238.57 633.29,233.93 915.86,49.21 1065.72,-356.47 140.3,-379.8 211.24,-920.72 289.87,-1520.4 23.63,-180.22 47.82,-364.57 65.07,-487.06 114.21,-810.58 465.25,-1199.17 993.35,-1359.2 457.65,-138.68 1002.38,-67.16 1632.16,37.81 630.54,105.09 1164.37,-21.88 1667.06,-280.4 535.45,-275.36 1056.5,-708.47 1615.98,-1176.21 350.51,-293.05 647.23,-473.68 887.87,-538.71 218.51,-59.05 409.97,-36.58 573.66,68.69 159.85,102.78 262.01,266.03 305.29,490.56 50.11,259.96 17.6,637.44 -100.5,1135.43 -9.63,40.63 -25.14,78.33 -45.42,112.41 0.58,34.71 -3.36,70.06 -12.32,105.32 -751.19,2942.8 -2519.9,5171.76 -4655.77,6738.54 -2650,1943.94 -5874.12,2865.75 -8412.21,2863.32 -4368.81,-4.19 -7516.56,-2703.95 -10383.8,-5163.14 -2805.85,-2406.52 -5329.02,-4570.61 -8361,-3484.63 -2081.05,745.38 -3903.57,2370.31 -5372.82,4585.06 -1043.59,1573.1 -1907.61,3440.02 -2559.46,5499.74 972.87,549.07 2008.59,1128.03 2943.89,1639.41 5.84,2.79 11.65,5.71 17.41,8.81 365.6,197.42 795.15,221.36 1217.28,157.6 678.7,-102.51 1331.15,-425.9 1715.58,-651.79 1968.39,-1156.68 4886.05,-2279.07 7790.03,-2189.26 2163.82,66.93 4317.09,800.26 6072.01,2674.67 1441.51,1539.68 1880.55,3630.39 2304.49,5649.27 112.46,535.63 223.84,1065.96 359.9,1601.43 54.36,214.01 -75.05,431.58 -289.06,485.94 -214.01,54.36 -431.58,-75.05 -485.94,-289.06 -130.54,-513.75 -247.78,-1071.98 -366.16,-1635.81 -401.65,-1912.71 -817.59,-3893.48 -2104.49,-5268.01 -1588.5,-1696.67 -3544.34,-2360.67 -5512.63,-2421.55 -2733.31,-84.54 -5495.88,981.52 -7365.03,2079.88 -384.16,225.73 -1003.1,536.25 -1682.35,693.81 664.76,346.23 1157.05,584.25 1352.72,640.39 648.28,186 1198.86,-117.1 1778.52,-436.21l99.95 -54.93c1755.77,-961.93 3748.37,-1762.05 5742.19,-1868.72 2031.56,-108.7 4048.47,497.64 5798.69,2367.04 150.15,160.51 141.76,412.36 -18.75,562.51 -160.51,150.15 -412.36,141.76 -562.51,-18.75 -1563,-1669.42 -3363.52,-2210.94 -5176.81,-2113.92 -1851.07,99.04 -3730.92,858.26 -5398.43,1771.84l-99.95 54.93c-727.76,400.65 -1419,781.18 -2381.66,504.97 -386.57,-110.91 -1609.5,-744.67 -3074.1,-1543.82l-54.82 -29.94c-12.29,-6.35 -24.56,-12.79 -36.79,-19.39 -7.32,-3.94 -14.46,-8.1 -21.43,-12.42 -894.34,-488.96 -1871.12,-1034.16 -2796.68,-1555.73 -482.85,1700.25 -824.92,3517.81 -1008.84,5399.78 -441.25,4515.21 28.38,9395.25 1645.24,13909.42 1729.85,4829.63 4774.52,9237.43 9424.18,12322.01l148.82 98.73c1271.04,843.3 2447.61,1623.88 3558.38,2295.33 847.99,479.93 1687.33,532.49 2481.48,327.75 882.37,-227.48 1724.03,-771.19 2470.09,-1407.73 221.01,-188.57 443.22,-392.42 677.39,-622.22 233.92,-229.57 483.93,-489.42 760.79,-790.26 191.02,-207.57 360.34,-376.2 520.34,-520.19 -65.57,-12.11 -130.39,-25.24 -195.27,-38.38l-31.27 -6.33c-266.44,-53.78 -444.68,-112.28 -582.12,-196.62 -179.08,-109.9 -274.45,-239.63 -352.61,-418.9l-13.22 -30.33c-148.12,-339.83 -160.5,-368.22 -394.69,-356.22 -171.13,8.77 -339.46,-30.07 -498.98,-105.12 -277.06,-130.33 -531.57,-377.63 -716.91,-664.32 -183.27,-283.46 -305.86,-615.39 -321.42,-918.78 -8.97,-174.82 16.15,-344.26 82.57,-498.03 -93.08,-18.94 -227.5,-25.58 -378.43,-26.75 -568.41,-4.43 -975.01,-64.48 -1254.47,-210.08 -376.1,-195.93 -533.53,-496.19 -515.24,-940.24 7.3,-177.39 41.89,-332.89 100.13,-468.46 78.28,-182.2 191.63,-325.36 333.13,-434.84 -234.94,-215.82 -352.99,-463.29 -354.62,-730.38 -4.68,-764.09 360.19,-966.61 720.17,-1166.4 126.64,-70.28 251.91,-139.81 278.2,-273.84 56.26,-286.8 -9.92,-510.33 -68.15,-706.98 -38.1,-128.67 -73.82,-249.3 -90.14,-383.97 -39.81,-328.47 9.74,-594.71 125.76,-798.14 74.55,-130.72 173.86,-233.19 293.39,-307.97l0.7 1.13c116.2,-72.58 245.56,-116.91 384.23,-133.71 291.49,-35.33 638.04,50.74 987.95,250.29 152.06,86.72 241.29,133.5 289.46,131.68 61.47,-2.32 167.06,-60 359.64,-183 398.79,-254.71 671.7,-376.22 986.55,-317.05 95.2,17.9 183.59,50.99 269.81,100.62 36.47,-115.74 82.67,-216.96 137.63,-310.03 94.72,-160.36 208.23,-283.75 340.41,-412.46 235.16,-228.96 453.53,-328.87 684.04,-346.72 218.69,-16.94 410.02,44.92 622.47,140.4 521.87,234.51 683.78,176.08 1067.42,37.61l58.08 -20.93c425.2,-152.82 858.05,-43.25 1277.35,197.47 184.06,105.67 365.9,237.3 542.7,381.26 364.01,-316.13 735.58,-625.71 1375.37,-592.87 701.37,36.01 1020.24,337.14 1380.56,677.45 134.29,126.82 275.98,260.65 442.44,372.11 208.62,139.69 507.44,204.11 792.51,265.55 666.88,143.74 1281.1,276.16 1420.16,1116.87 60.82,367.67 -47.37,719.45 -236.34,1068.35 -120.14,392.1 -83.75,606.11 39.41,725.58 161.07,156.24 491.33,243.06 847.9,326.13 248.03,57.78 466.7,195.05 641.26,371.62 184.15,186.29 321.16,421.11 390.18,651.2 24.79,82.62 40.41,164.71 47.39,246.18 26.01,302.7 -64,585.94 -238.42,848.02 -4.63,7.38 -9.55,14.65 -14.72,21.8 -151.54,220.79 -362.92,426.4 -615.01,615.77 229.34,116.68 408.35,240.85 546.86,367.67 241.71,221.31 367.48,454.33 421.32,677.48 56.36,233.58 33.47,447.3 -19.77,625.39 -76.13,254.63 -226.4,448.89 -277.97,505.2 -378.09,412.99 -615.42,636.41 -891.03,748.37 -305.73,124.22 -573.92,94.29 -1006.58,-1.77l-141.52 -31.53c-854.42,-190.72 -900.88,-201.09 -1137.04,386.52 -44.69,111.19 -103.19,211.24 -174.12,300.84 -328.13,414.52 -867.42,541.04 -1498.36,485.15 -384.91,-34.09 -811.68,-137.3 -1242.82,-281 -9.82,-2.87 -19.58,-6.17 -29.3,-9.84 -79.59,-26.86 -159.31,-55.06 -238.91,-84.45 -436.65,-126.65 -852.77,-97.34 -1194.93,-16.6 -410.85,96.94 -712.52,265.22 -825.03,333.76 -205.41,125.13 -386.91,247.59 -570.81,398.45 -186.37,152.89 -383.72,341.65 -621.83,600.37 -268.81,292.11 -150.72,162.86 -194.21,210.44 -266.16,291.14 -590.91,646.3 -954.53,1018.88zm2127.78 282.13c811.83,469.91 1225.39,1280.29 1669.89,2151.43 88.04,172.57 38.46,76.73 -0.97,0.5l-0.45 0.22 78.26 152.69c122.35,238.64 209.67,331.13 286.48,335.08 122.32,6.29 326.54,-100.25 588.53,-245.84 922.3,-512.53 1428.97,-247.67 1798.93,418.11 186.21,335.11 313.51,771.59 454.64,1255.51 14.3,49.06 28.99,99.38 105.25,351.9 85.09,281.71 194.75,395.35 329.04,414.39 209.86,29.76 529.81,-66.86 906.29,-191 625.12,-206.12 1183.71,-162.43 1728.62,19.14 514.96,171.58 987.8,454.9 1495.03,761 82.51,49.79 155.51,90.66 218.91,122.51 -26.22,-88.18 -64.57,-194.47 -115.27,-319.15 -9.42,-23.25 -16.48,-46.88 -21.31,-70.6 -16.53,-23.17 -30.83,-48.47 -42.44,-75.75 -912.31,-2138.21 -2611.07,-3651.85 -4584.63,-4469.65 -1546.33,-640.76 -3259.31,-855.56 -4894.8,-610.49zm1668.92 2151.93c-31.34,-60.61 -56.22,-108.7 -0.45,0.22l0.45 -0.22zm-710.54 361.5c-122.92,-239.36 -46.45,-88.89 -0.95,0.48l0.95 -0.48zm-854.19 -12577.69l-499.38 -25.06 25.05 -499.37 499.38 25.06 -25.05 499.37zm-100.22 1997.48l-499.38 -25.06 25.06 -499.37 499.38 25.06 -25.06 499.37zm50.12 -998.74l-499.38 -25.06 25.05 -499.37 499.38 25.06 -25.05 499.37zm1042.54 185.48l-488.88 -104.88 104.88 -488.87 488.88 104.88 -104.88 488.87zm-419.54 1955.5l-488.88 -104.88 104.89 -488.88 488.88 104.88 -104.89 488.88zm209.78 -977.76l-488.88 -104.88 104.88 -488.87 488.88 104.88 -104.88 488.87zm6076.03 1057.71c-632.43,-341.34 -1710.58,-1209.49 -2413.04,-1775.12l-98.59 -79.38c-18.33,64.55 -37.11,143.47 -56.52,229.43 -95.58,423.34 -268.27,673.3 -484.44,817.24 -234.3,156.03 -482.87,170.75 -731.2,134.77 -579.13,-83.89 -741.73,320.87 -1023.42,1022.14 -24.71,61.53 -50.15,124.84 -76.39,189.45 83.2,30.15 167.74,61.66 253.54,93.65 521.31,194.38 1102.25,410.99 1609.91,367.37 280.93,-24.13 732.14,-119.3 1240.22,-271.71 542.18,-162.65 1138.95,-387.65 1650.29,-657.43 12.15,-7.32 24.69,-13.97 37.55,-19.97 31.04,-16.65 61.74,-33.47 92.09,-50.44zm-5655.66 318.39c38.2,-92.83 73.73,-181.28 107.83,-266.19 430.27,-1071.15 678.63,-1689.4 1876.54,-1515.88 76.72,11.11 143.46,13.28 178.08,-9.77 52.75,-35.12 102.74,-130.83 146.94,-326.62 66.76,-295.65 142.8,-555.07 288.27,-726.24 248.42,-292.29 550.76,-348.2 963.01,-17.09l181.95 146.4 41.61 33.5c4.06,-7.35 8.34,-14.63 12.92,-21.81 151.55,-237.66 316.26,-459.26 478.42,-677.42 193.44,-260.25 382.67,-514.89 515.02,-748.02 7.18,-15.07 15.22,-29.52 24.06,-43.31 114.33,-210.64 178.38,-402.47 151.76,-563.34 -50.02,-302.44 -408.77,-379.78 -798.28,-463.73 -357.63,-77.08 -732.5,-157.89 -1070.65,-384.31 -225.24,-150.82 -389.69,-306.15 -545.56,-453.35 -247.68,-233.92 -466.87,-440.91 -874.3,-461.83 -289.28,-14.84 -517.53,147.89 -736.93,333.83 1242.56,1220.26 1124.86,2019.71 900.28,3543.14l-12.44 84.44c-31.92,218.32 -234.8,369.42 -453.12,337.5 -218.32,-31.92 -369.42,-234.8 -337.5,-453.12l12.44 -84.44c191.14,-1296.62 288.77,-1958.83 -769.89,-2955.28 -281.82,-265.25 -584.96,-529.82 -877.17,-697.58 -230.59,-132.38 -445.13,-201.1 -611.71,-141.23l-58.08 20.93c-596.21,215.2 -847.82,306 -1661.18,-59.49 -101.47,-45.6 -182.6,-75.93 -238.09,-71.64 -43.67,3.38 -101.32,38.14 -187.16,121.72 -86.54,84.27 -158.69,161.38 -209.17,246.84 -47.06,79.67 -81.72,178.76 -101.99,318.89 -83.65,577.9 144.23,1226.29 420.27,2011.69l46.03 131.08c72.48,207.96 -37.35,435.33 -245.31,507.81 -207.96,72.48 -435.33,-37.35 -507.81,-245.31l-46.03 -131.08c-212.04,-603.32 -398.87,-1135.02 -461.65,-1655.15 -175.62,-226.04 -279.19,-337.97 -345.33,-350.4 -58.63,-11.02 -187.82,61.65 -411.55,204.55 -317.5,202.78 -526.41,299.19 -759.64,308 -246.53,9.33 -432.3,-75.67 -711.34,-234.8 -199.47,-113.75 -374.67,-165.53 -500.43,-150.29 -26.24,3.18 -45.52,8.31 -56.81,15.38l0 1.56c-8.15,5.1 -15.43,12.95 -21.51,23.61 -33.06,57.97 -44.05,159.67 -25.76,310.62 8.89,73.38 34.59,160.16 62,252.73 84.4,285.03 180.31,608.97 86.91,1085.1 -97.5,497.07 -384.7,656.46 -675.08,817.6 -155.23,86.15 -312.58,173.49 -310.79,466.4 0.24,40.05 35.28,92.06 105.24,154.14 112.32,99.67 289.44,195.78 532.6,284.03 390.74,2.24 830.71,77.93 1267.62,191.09 984.8,255.05 1981.5,712.25 2309.97,922.81 185.53,119.08 239.39,366.04 120.31,551.57 -119.08,185.53 -366.04,239.39 -551.57,120.31 -287.87,-184.54 -1179.07,-589.81 -2078.71,-822.81 -447.63,-115.94 -889.94,-186.25 -1242.2,-157.63 -252.15,20.48 -440.37,91.72 -504.27,240.45 -21.64,50.38 -34.64,111.37 -37.63,184.1 -4.2,101.92 22.4,165.89 87.12,199.6 161.35,84.06 452.44,119.18 888.83,122.58 331.9,2.59 638.1,36.35 855.41,157.1 346.71,192.64 480.75,494.89 254.25,976.35 -17.13,36.43 -23.12,87.46 -20.04,147.59 8.45,164.89 82.25,356.38 193.3,528.14 108.96,168.54 246.8,308.38 385.65,373.7 44.31,20.85 85.57,31.92 120.86,30.12 785.35,-40.27 814.76,27.18 1166.57,834.34l13.22 30.33c13,29.83 23.93,48.4 36.97,56.4 54.66,33.54 154.47,62.65 322.76,96.62l31.27 6.33c393.22,79.62 783.99,158.75 1467.57,-148.12 15.21,-6.79 30.63,-12.53 46.16,-17.29 105.74,-60.48 211.17,-121.05 300.78,-173.47 115.19,-67.54 250.37,-70.64 363.74,-20.25 -418.13,-329.04 -847.77,-649.92 -1265.06,-833.71 -380.32,-167.51 -753.25,-216.08 -1098.21,-24.92 -192.43,107 -435.19,37.74 -542.19,-154.69 -107,-192.43 -37.74,-435.19 154.69,-542.19 605.74,-335.67 1211.9,-271.82 1807.59,-9.46 527.78,232.45 1038.35,624.24 1529.73,1013.23 397.25,314.48 1207.85,780.92 2065.59,1125.65 68.57,27.56 137.33,54.26 206.07,79.99 93.61,27.91 188.09,61.13 283.18,100.18 372.08,123.7 735.38,211.89 1056.86,240.37 373.98,33.12 670.09,-12.1 804.6,-182.03 22.28,-28.14 41.9,-62.65 58.5,-103.96 488.78,-1216.16 569.28,-1198.19 2049.54,-867.76l141.52 31.53c270.2,59.99 425.15,83.78 534.7,39.27 139.68,-56.74 309.91,-224.53 603.53,-545.25 16.77,-18.31 67.09,-86.25 99.85,-195.82 19.03,-63.65 28.02,-136.68 10.39,-209.77 -20.15,-83.51 -74.28,-177.18 -183.82,-277.48 -164.11,-150.27 -433.49,-301.84 -856.28,-441.71 -532.46,267.76 -1125.76,489.17 -1664.79,650.87 -561.28,168.37 -1072.82,274.63 -1402.72,302.97 -678.04,58.25 -1350.34,-192.42 -1953.65,-417.37 -538.82,-200.9 -1003.81,-374.28 -1143.29,-222.39 -149.28,162.23 -401.83,172.72 -564.06,23.44 -162.23,-149.28 -172.72,-401.83 -23.44,-564.06 273.73,-298.08 606.17,-355.8 983.31,-297.66zm4397.15 -2191.27c709.36,562.4 1499.44,1163.2 1762.1,1232.07 97.94,25.67 178.84,24.42 245.29,3.65 73.14,-22.86 138.75,-72.78 196.54,-138.54 63.37,-106.25 94.62,-211.89 85.75,-315.14 -2.37,-27.62 -7.69,-55.54 -16.13,-83.68 -33.47,-111.57 -101.31,-226.87 -193.32,-319.94 -73.65,-74.49 -160.82,-131.23 -253.76,-152.88 -469.73,-109.44 -912.91,-231.67 -1222.9,-532.37 -78.23,-75.89 -145.56,-159.41 -200.05,-252.17 -118.32,160.49 -233.52,320.83 -331.64,474.69 -20.45,32.1 -44.74,60.26 -71.88,84.31zm-2022.58 -28509.46c-105.25,45.96 -209.12,87.84 -311.77,125.82 112.55,4.13 225.79,6.58 339.96,6.69 2389.96,2.28 5432.06,-870.23 7940.33,-2710.2 1998.33,-1465.88 3652.21,-3547.67 4352.65,-6291.66 9.71,-38.23 24.64,-73.73 43.82,-105.99 -0.55,-32.69 2.92,-65.97 10.8,-99.24 73.55,-310.13 107.91,-542.3 104.17,-698.26 -120.97,59.69 -281.24,173.11 -479.87,339.17 -594.07,496.66 -1148.01,956.9 -1762.86,1273.09 -647.61,333.05 -1339.5,495.92 -2163.94,358.52 -529.4,-88.24 -978.89,-150.91 -1269.64,-62.81 -220.3,66.76 -371.98,265.96 -433.99,706.08 -29.03,206.1 -47.31,345.31 -65.07,480.8 -85.25,650.16 -162.16,1236.6 -330.49,1692.28 -320.39,867.34 -881.44,1278.18 -2090.72,831.47 -389.85,-144.01 -694.3,-246.34 -882.24,-207.31 -145.04,30.12 -270.68,191.64 -398.11,575.7l-71.02 214.35 0.22 0.07c18.57,-54.88 85.29,-254.18 1.37,0.45 -496.36,1505.59 -949.22,2879.16 -2533.6,3570.98zm1774.31 -3820.95c-26.21,79.89 -62.5,190.87 0.95,0.31l-0.95 -0.31zm757.7 249.45c-6.36,19.34 -4.89,15.19 0.22,0.07l-0.22 -0.07zm-10121.26 6076.87l23.28 44.53 30.97 61.01 30.33 61.66 29.77 62.41 29.17 63.12 28.54 63.78 27.92 64.48 27.3 65.22 26.7 65.97 26.07 66.65 25.42 67.37 750.14 -277.98 -28.76 -76.25 -29.53 -75.53 -30.26 -74.77 -31.02 -74.08 -31.78 -73.4 -32.52 -72.66 -33.23 -71.9 -33.95 -71.21 -34.71 -70.52 -35.41 -69.77 -23.28 -44.53 -711.16 366.4zm-13836.26 -958.31l31.83 -19.9 58.2 -35.93 58.6 -35.7 59.01 -35.48 59.4 -35.25 59.86 -35.06 60.2 -34.82 60.59 -34.57 60.98 -34.36 61.36 -34.11 61.73 -33.88 38.09 -20.63 -379.1 -704.48 -41.95 22.73 -65.59 36 -65.24 36.27 -64.86 36.54 -64.51 36.81 -64.12 37.08 -63.72 37.32 -63.38 37.61 -62.99 37.88 -62.6 38.14 -62.18 38.39 -31.83 19.9 422.22 679.5zm2806.79 -1324.63l37.4 -12.96 71.38 -24.36 71.54 -24.04 71.72 -23.71 71.9 -23.38 72.08 -23.05 72.27 -22.72 72.44 -22.41 72.59 -22.05 72.75 -21.73 57.54 -16.88 -223.32 -768.2 -61.26 17.98 -76.47 22.83 -76.29 23.19 -76.12 23.53 -75.95 23.88 -75.8 24.25 -75.6 24.58 -75.42 24.93 -75.2 25.26 -75 25.6 -37.4 12.96 260.22 756.5zm3028.7 -720.01l37.89 -4.95 75.09 -9.43 75.05 -9.01 75.05 -8.6 74.99 -8.19 74.98 -7.77 74.95 -7.36 74.9 -6.95 74.83 -6.51 74.79 -6.1 61.51 -4.67 -58.32 -797.88 -65.97 5.01 -79.23 6.46 -79.27 6.91 -79.26 7.35 -79.27 7.78 -79.3 8.23 -79.31 8.65 -79.29 9.1 -79.31 9.51 -79.29 9.95 -37.89 4.95 101.68 793.52zm3088.86 -30.89l28.55 3.6 69.96 9.33 69.67 9.81 69.47 10.31 69.25 10.79 68.98 11.28 68.71 11.76 68.47 12.26 68.21 12.74 67.94 13.25 67.68 13.74 39.04 8.25 168.46 -782.06 -45.26 -9.57 -73.8 -14.98 -74.04 -14.43 -74.25 -13.88 -74.47 -13.34 -74.69 -12.78 -74.88 -12.24 -75.07 -11.69 -75.27 -11.17 -75.51 -10.63 -75.64 -10.09 -28.55 -3.6 -102.96 793.34zm2875.55 921.13l57.15 33.82 54.44 33.04 53.97 33.57 53.53 34.12 53.1 34.68 52.66 35.24 52.21 35.79 51.75 36.34 51.29 36.91 50.83 37.47 50.36 38.03 36.51 28.23 493.14 -629.94 -43.87 -33.93 -57.76 -43.61 -58.25 -42.93 -58.73 -42.25 -59.19 -41.58 -59.65 -40.89 -60.1 -40.22 -60.54 -39.54 -61.01 -38.9 -61.45 -38.21 -61.84 -37.54 -64.61 -38.22 -403.94 690.52zm820.49 5747.81c170.86,-138.93 422.01,-113.04 560.94,57.82 138.93,170.86 113.04,422.01 -57.82,560.94 -1475.08,1200.21 -3096.18,1635.5 -4732.14,1592.55 -1610.05,-42.27 -3223.47,-549 -4717.89,-1241.69 -200.2,-92.33 -287.64,-329.49 -195.31,-529.69 92.33,-200.2 329.49,-287.64 529.69,-195.31 1409.4,653.28 2918.99,1130.87 4402.27,1169.81 1457.35,38.26 2900.01,-348.33 4210.26,-1414.43zm852.86 8293.5c198.48,-96.64 437.74,-14.1 534.38,184.38 96.64,198.48 14.1,437.74 -184.38,534.38 -444.09,216.79 -815.63,483.53 -1094.54,789.36 -300.07,329.03 -493.58,704.42 -553.73,1111.3 -60.68,410.5 12.75,862.53 247.22,1342.84 229.68,470.49 610.93,965.21 1167.44,1472.74 163.09,148.42 174.98,400.97 26.56,564.06 -148.42,163.09 -400.97,174.98 -564.06,26.56 -635.67,-579.72 -1076.62,-1156.02 -1348.7,-1713.36 -308.48,-631.92 -402.87,-1241.69 -319.08,-1808.46 84.32,-570.39 347.61,-1087.86 753.73,-1533.18 348.67,-382.33 801.79,-710.24 1335.16,-970.62zm2153.12 797.79c-101.93,-92.76 -109.36,-250.61 -16.6,-352.54 92.76,-101.93 250.61,-109.36 352.54,-16.6l1523.03 1384.57c101.93,92.76 109.36,250.61 16.6,352.54 -92.76,101.93 -250.61,109.36 -352.54,16.6l-1523.03 -1384.57zm-5.86 -1344.28c-98.69,-96 -100.88,-253.85 -4.88,-352.54 96,-98.69 253.85,-100.88 352.54,-4.88l1661.49 1615.34c98.69,96 100.88,253.85 4.88,352.54 -96,98.69 -253.85,100.88 -352.54,4.88l-1661.49 -1615.34zm2852.29 5541.3c-699.51,-393.02 -1175.8,-651.25 -1564.4,-749.58 -193.79,-49.03 -398.03,-66.31 -600.81,-57.47 -221.42,9.65 -442.99,50.44 -649.46,115.16 -393.36,123.31 -646.44,272.02 -778.2,429.28 -63.05,75.26 -91.25,148.25 -88,215.61 3.85,79.8 46.48,169.24 123.62,262.66 176.87,214.22 503.33,414.76 952.01,564.5 333.2,111.2 638.59,123.8 946.7,53.18 331.79,-76.04 676.93,-247.23 1065.53,-495.48 92.33,-58.98 188.56,-118.85 292.69,-178.8 95.78,-55.14 195.44,-108.7 300.32,-159.06z"></path></g></g>
</svg>
</g></svg></svg>