<svg version="1.1" preserveAspectRatio="none" xmlns="http://www.w3.org/2000/svg" width="500" height="500" viewBox="0 0 500 500"><rect width="100%" height="100%" fill="#14051E" fill-opacity="1"/><svg viewBox="53.9006 87.1279 377.3088 302.7395" width="333" height="267.1876550454164" x="83.5px" y="116.4062px" xmlns="http://www.w3.org/2000/svg" xmlns:xlink="http://www.w3.org/1999/xlink" preserveAspectRatio="none"><defs></defs><style>.a6izo4zJpcolor {fill:#D6C7F4;fill-opacity:1;}.aD6z1nYkhcolor {fill:#D6C7F4;fill-opacity:1;}.icon1 {fill:#907DB3;fill-opacity:1;}.icon2 {fill:#D6C7F4;fill-opacity:1;}.icon3 {fill:#6A588A;fill-opacity:1;}.icon3-str {stroke:#6A588A;stroke-opacity:1;}</style><g opacity="1" transform="rotate(0 132.5735 371.8674)">
<svg width="219.963" height="18" x="132.5735" y="371.8674" version="1.1" preserveAspectRatio="none" viewBox="4.56 -29.68 459.92 37.64">
  <g transform="matrix(1 0 0 1 0 0)" class="a6izo4zJpcolor"><path id="id-6izo4zJp21" d="M7.52-2.56L24.36-2.56L24.36 0L4.56 0L4.56-28L23.76-28L23.76-25.44L7.52-25.44L7.52-15.48L22-15.48L22-12.96L7.52-12.96L7.52-2.56Z M30.72 0L30.72-29.68L33.56-29.68L33.56 0L30.72 0Z M59.84-10.52L59.80-9.64L42.20-9.64Q42.44-6.36 44.72-4.34Q47-2.32 50.48-2.32L50.48-2.32Q52.44-2.32 54.08-3.02Q55.72-3.72 56.92-5.08L56.92-5.08L58.52-3.24Q57.12-1.56 55.02-0.68Q52.92 0.20 50.40 0.20L50.40 0.20Q47.16 0.20 44.66-1.18Q42.16-2.56 40.76-5Q39.36-7.44 39.36-10.52L39.36-10.52Q39.36-13.60 40.70-16.04Q42.04-18.48 44.38-19.84Q46.72-21.20 49.64-21.20L49.64-21.20Q52.56-21.20 54.88-19.84Q57.20-18.48 58.52-16.06Q59.84-13.64 59.84-10.52L59.84-10.52ZM49.64-18.76Q46.60-18.76 44.54-16.82Q42.48-14.88 42.20-11.76L42.20-11.76L57.12-11.76Q56.84-14.88 54.78-16.82Q52.72-18.76 49.64-18.76L49.64-18.76Z M82.40-21.04L85.12-21.04L85.12-2.56Q85.12 2.80 82.50 5.38Q79.88 7.96 74.60 7.96L74.60 7.96Q71.68 7.96 69.06 7.10Q66.44 6.24 64.80 4.72L64.80 4.72L66.24 2.56Q67.76 3.92 69.94 4.68Q72.12 5.44 74.52 5.44L74.52 5.44Q78.52 5.44 80.40 3.58Q82.28 1.72 82.28-2.20L82.28-2.20L82.28-4.88Q80.96-2.88 78.82-1.84Q76.68-0.80 74.08-0.80L74.08-0.80Q71.12-0.80 68.70-2.10Q66.28-3.40 64.90-5.74Q63.52-8.08 63.52-11.04L63.52-11.04Q63.52-14 64.90-16.32Q66.28-18.64 68.68-19.92Q71.08-21.20 74.08-21.20L74.08-21.20Q76.76-21.20 78.92-20.12Q81.08-19.04 82.40-17L82.40-17L82.40-21.04ZM74.36-3.32Q76.64-3.32 78.48-4.30Q80.32-5.28 81.34-7.04Q82.36-8.80 82.36-11.04L82.36-11.04Q82.36-13.28 81.34-15.02Q80.32-16.76 78.50-17.74Q76.68-18.72 74.36-18.72L74.36-18.72Q72.08-18.72 70.26-17.76Q68.44-16.80 67.42-15.04Q66.40-13.28 66.40-11.04L66.40-11.04Q66.40-8.80 67.42-7.04Q68.44-5.28 70.26-4.30Q72.08-3.32 74.36-3.32L74.36-3.32Z M100.44-21.20Q104.56-21.20 106.76-19.14Q108.96-17.08 108.96-13.04L108.96-13.04L108.96 0L106.24 0L106.24-3.28Q105.28-1.64 103.42-0.72Q101.56 0.20 99 0.20L99 0.20Q95.48 0.20 93.40-1.48Q91.32-3.16 91.32-5.92L91.32-5.92Q91.32-8.60 93.26-10.24Q95.20-11.88 99.44-11.88L99.44-11.88L106.12-11.88L106.12-13.16Q106.12-15.88 104.60-17.30Q103.08-18.72 100.16-18.72L100.16-18.72Q98.16-18.72 96.32-18.06Q94.48-17.40 93.16-16.24L93.16-16.24L91.88-18.36Q93.48-19.72 95.72-20.46Q97.96-21.20 100.44-21.20L100.44-21.20ZM99.44-2.04Q101.84-2.04 103.56-3.14Q105.28-4.24 106.12-6.32L106.12-6.32L106.12-9.76L99.52-9.76Q94.12-9.76 94.12-6L94.12-6Q94.12-4.16 95.52-3.10Q96.92-2.04 99.44-2.04L99.44-2.04Z M127.40-21.20Q131.36-21.20 133.70-18.90Q136.04-16.60 136.04-12.20L136.04-12.20L136.04 0L133.20 0L133.20-11.92Q133.20-15.20 131.56-16.92Q129.92-18.64 126.88-18.64L126.88-18.64Q123.48-18.64 121.50-16.62Q119.52-14.60 119.52-11.04L119.52-11.04L119.52 0L116.68 0L116.68-21.04L119.40-21.04L119.40-17.16Q120.56-19.08 122.62-20.14Q124.68-21.20 127.40-21.20L127.40-21.20Z M152.56 0.20Q149.44 0.20 146.98-1.16Q144.52-2.52 143.12-4.98Q141.72-7.44 141.72-10.52L141.72-10.52Q141.72-13.60 143.12-16.04Q144.52-18.48 146.98-19.84Q149.44-21.20 152.56-21.20L152.56-21.20Q155.28-21.20 157.42-20.14Q159.56-19.08 160.80-17.04L160.80-17.04L158.68-15.60Q157.64-17.16 156.04-17.94Q154.44-18.72 152.56-18.72L152.56-18.72Q150.28-18.72 148.46-17.70Q146.64-16.68 145.62-14.80Q144.60-12.92 144.60-10.52L144.60-10.52Q144.60-8.08 145.62-6.22Q146.64-4.36 148.46-3.34Q150.28-2.32 152.56-2.32L152.56-2.32Q154.44-2.32 156.04-3.08Q157.64-3.84 158.68-5.40L158.68-5.40L160.80-3.96Q159.56-1.92 157.40-0.86Q155.24 0.20 152.56 0.20L152.56 0.20Z M184.36-10.52L184.32-9.64L166.72-9.64Q166.96-6.36 169.24-4.34Q171.52-2.32 175.00-2.32L175.00-2.32Q176.96-2.32 178.60-3.02Q180.24-3.72 181.44-5.08L181.44-5.08L183.04-3.24Q181.64-1.56 179.54-0.68Q177.44 0.20 174.92 0.20L174.92 0.20Q171.68 0.20 169.18-1.18Q166.68-2.56 165.28-5Q163.88-7.44 163.88-10.52L163.88-10.52Q163.88-13.60 165.22-16.04Q166.56-18.48 168.90-19.84Q171.24-21.20 174.16-21.20L174.16-21.20Q177.08-21.20 179.40-19.84Q181.72-18.48 183.04-16.06Q184.36-13.64 184.36-10.52L184.36-10.52ZM174.16-18.76Q171.12-18.76 169.06-16.82Q167.00-14.88 166.72-11.76L166.72-11.76L181.64-11.76Q181.36-14.88 179.30-16.82Q177.24-18.76 174.16-18.76L174.16-18.76Z M236.84-28L239.68-28L230.24 0L227.12 0L218.92-23.88L210.68 0L207.60 0L198.16-28L201.20-28L209.28-3.92L217.64-28L220.40-28L228.64-3.80L236.84-28Z M244.36 0L244.36-21.04L247.20-21.04L247.20 0L244.36 0ZM245.80-25.64Q244.92-25.64 244.32-26.24Q243.72-26.84 243.72-27.68L243.72-27.68Q243.72-28.48 244.32-29.08Q244.92-29.68 245.80-29.68L245.80-29.68Q246.68-29.68 247.28-29.10Q247.88-28.52 247.88-27.72L247.88-27.72Q247.88-26.84 247.28-26.24Q246.68-25.64 245.80-25.64L245.80-25.64Z M265.20-3.32L266.20-1.28Q265.40-0.56 264.22-0.18Q263.04 0.20 261.76 0.20L261.76 0.20Q258.80 0.20 257.20-1.40Q255.60-3 255.60-5.92L255.60-5.92L255.60-18.64L251.84-18.64L251.84-21.04L255.60-21.04L255.60-25.64L258.44-25.64L258.44-21.04L264.84-21.04L264.84-18.64L258.44-18.64L258.44-6.08Q258.44-4.20 259.38-3.22Q260.32-2.24 262.08-2.24L262.08-2.24Q262.96-2.24 263.78-2.52Q264.60-2.80 265.20-3.32L265.20-3.32Z M282.08-21.20Q286.04-21.20 288.38-18.90Q290.72-16.60 290.72-12.20L290.72-12.20L290.72 0L287.88 0L287.88-11.92Q287.88-15.20 286.24-16.92Q284.60-18.64 281.56-18.64L281.56-18.64Q278.16-18.64 276.18-16.62Q274.20-14.60 274.20-11.04L274.20-11.04L274.20 0L271.36 0L271.36-29.68L274.20-29.68L274.20-17.36Q275.36-19.20 277.40-20.20Q279.44-21.20 282.08-21.20L282.08-21.20Z M298.44 0L298.44-21.04L301.28-21.04L301.28 0L298.44 0ZM299.88-25.64Q299.00-25.64 298.40-26.24Q297.80-26.84 297.80-27.68L297.80-27.68Q297.80-28.48 298.40-29.08Q299.00-29.68 299.88-29.68L299.88-29.68Q300.76-29.68 301.36-29.10Q301.96-28.52 301.96-27.72L301.96-27.72Q301.96-26.84 301.36-26.24Q300.76-25.64 299.88-25.64L299.88-25.64Z M319.92-21.20Q323.88-21.20 326.22-18.90Q328.56-16.60 328.56-12.20L328.56-12.20L328.56 0L325.72 0L325.72-11.92Q325.72-15.20 324.08-16.92Q322.44-18.64 319.40-18.64L319.40-18.64Q316.00-18.64 314.02-16.62Q312.04-14.60 312.04-11.04L312.04-11.04L312.04 0L309.20 0L309.20-21.04L311.92-21.04L311.92-17.16Q313.08-19.08 315.14-20.14Q317.20-21.20 319.92-21.20L319.92-21.20Z M369.72 0L366.48 0L360.08-9Q359.00-8.88 357.84-8.88L357.84-8.88L350.32-8.88L350.32 0L347.36 0L347.36-28L357.84-28Q363.20-28 366.24-25.44Q369.28-22.88 369.28-18.40L369.28-18.40Q369.28-15.12 367.62-12.86Q365.96-10.60 362.88-9.60L362.88-9.60L369.72 0ZM357.76-11.40Q361.92-11.40 364.12-13.24Q366.32-15.08 366.32-18.40L366.32-18.40Q366.32-21.80 364.12-23.62Q361.92-25.44 357.76-25.44L357.76-25.44L350.32-25.44L350.32-11.40L357.76-11.40Z M394.04-10.52L394-9.64L376.40-9.64Q376.64-6.36 378.92-4.34Q381.20-2.32 384.68-2.32L384.68-2.32Q386.64-2.32 388.28-3.02Q389.92-3.72 391.12-5.08L391.12-5.08L392.72-3.24Q391.32-1.56 389.22-0.68Q387.12 0.20 384.60 0.20L384.60 0.20Q381.36 0.20 378.86-1.18Q376.36-2.56 374.96-5Q373.56-7.44 373.56-10.52L373.56-10.52Q373.56-13.60 374.90-16.04Q376.24-18.48 378.58-19.84Q380.92-21.20 383.84-21.20L383.84-21.20Q386.76-21.20 389.08-19.84Q391.40-18.48 392.72-16.06Q394.04-13.64 394.04-10.52L394.04-10.52ZM383.84-18.76Q380.80-18.76 378.74-16.82Q376.68-14.88 376.40-11.76L376.40-11.76L391.32-11.76Q391.04-14.88 388.98-16.82Q386.92-18.76 383.84-18.76L383.84-18.76Z M406.60-21.20Q410.72-21.20 412.92-19.14Q415.12-17.08 415.12-13.04L415.12-13.04L415.12 0L412.40 0L412.40-3.28Q411.44-1.64 409.58-0.72Q407.72 0.20 405.16 0.20L405.16 0.20Q401.64 0.20 399.56-1.48Q397.48-3.16 397.48-5.92L397.48-5.92Q397.48-8.60 399.42-10.24Q401.36-11.88 405.60-11.88L405.60-11.88L412.28-11.88L412.28-13.16Q412.28-15.88 410.76-17.30Q409.24-18.72 406.32-18.72L406.32-18.72Q404.32-18.72 402.48-18.06Q400.64-17.40 399.32-16.24L399.32-16.24L398.04-18.36Q399.64-19.72 401.88-20.46Q404.12-21.20 406.60-21.20L406.60-21.20ZM405.60-2.04Q408-2.04 409.72-3.14Q411.44-4.24 412.28-6.32L412.28-6.32L412.28-9.76L405.68-9.76Q400.28-9.76 400.28-6L400.28-6Q400.28-4.16 401.68-3.10Q403.08-2.04 405.60-2.04L405.60-2.04Z M431.64 0.20Q428.52 0.20 426.06-1.16Q423.60-2.52 422.20-4.98Q420.80-7.44 420.80-10.52L420.80-10.52Q420.80-13.60 422.20-16.04Q423.60-18.48 426.06-19.84Q428.52-21.20 431.64-21.20L431.64-21.20Q434.36-21.20 436.50-20.14Q438.64-19.08 439.88-17.04L439.88-17.04L437.76-15.60Q436.72-17.16 435.12-17.94Q433.52-18.72 431.64-18.72L431.64-18.72Q429.36-18.72 427.54-17.70Q425.72-16.68 424.70-14.80Q423.68-12.92 423.68-10.52L423.68-10.52Q423.68-8.08 424.70-6.22Q425.72-4.36 427.54-3.34Q429.36-2.32 431.64-2.32L431.64-2.32Q433.52-2.32 435.12-3.08Q436.72-3.84 437.76-5.40L437.76-5.40L439.88-3.96Q438.64-1.92 436.48-0.86Q434.32 0.20 431.64 0.20L431.64 0.20Z M455.84-21.20Q459.80-21.20 462.14-18.90Q464.48-16.60 464.48-12.20L464.48-12.20L464.48 0L461.64 0L461.64-11.92Q461.64-15.20 460.00-16.92Q458.36-18.64 455.32-18.64L455.32-18.64Q451.92-18.64 449.94-16.62Q447.96-14.60 447.96-11.04L447.96-11.04L447.96 0L445.12 0L445.12-29.68L447.96-29.68L447.96-17.36Q449.12-19.20 451.16-20.20Q453.20-21.20 455.84-21.20L455.84-21.20Z"/></g>
</svg>
</g><g opacity="1" transform="rotate(0 53.9006 313.8674)">
<svg width="377.3088" height="40" x="53.9006" y="313.8674" version="1.1" preserveAspectRatio="none" viewBox="-0.56 -28.56 274.68 29.12">
  <g transform="matrix(1 0 0 1 0 0)" class="aD6z1nYkhcolor"><path id="id-D6z1nYkh10" d="M23.36-28L31.20-28L19.20 0L11.40 0L-0.56-28L8-28L15.60-9.76L23.36-28Z M46.60 0.56Q42.16 0.56 38.62-1.32Q35.08-3.20 33.06-6.52Q31.04-9.84 31.04-14L31.04-14Q31.04-18.16 33.06-21.48Q35.08-24.80 38.62-26.68Q42.16-28.56 46.60-28.56L46.60-28.56Q51.04-28.56 54.58-26.68Q58.12-24.80 60.14-21.48Q62.16-18.16 62.16-14L62.16-14Q62.16-9.84 60.14-6.52Q58.12-3.20 54.58-1.32Q51.04 0.56 46.60 0.56L46.60 0.56ZM46.60-6Q48.72-6 50.44-7Q52.16-8 53.16-9.82Q54.16-11.64 54.16-14L54.16-14Q54.16-16.36 53.16-18.18Q52.16-20 50.44-21Q48.72-22 46.60-22L46.60-22Q44.48-22 42.76-21Q41.04-20 40.04-18.18Q39.04-16.36 39.04-14L39.04-14Q39.04-11.64 40.04-9.82Q41.04-8 42.76-7Q44.48-6 46.60-6L46.60-6Z M85.08-6.92L85.08-14.60L92.08-14.60L92.08-3Q89.68-1.28 86.56-0.36Q83.44 0.56 80.32 0.56L80.32 0.56Q75.92 0.56 72.40-1.30Q68.88-3.16 66.88-6.48Q64.88-9.80 64.88-14L64.88-14Q64.88-18.20 66.88-21.52Q68.88-24.84 72.44-26.70Q76-28.56 80.48-28.56L80.48-28.56Q84.40-28.56 87.52-27.24Q90.64-25.92 92.72-23.44L92.72-23.44L87.68-18.88Q84.84-22 80.88-22L80.88-22Q77.28-22 75.08-19.82Q72.88-17.64 72.88-14L72.88-14Q72.88-11.68 73.88-9.86Q74.88-8.04 76.68-7.02Q78.48-6 80.80-6L80.80-6Q83.08-6 85.08-6.92L85.08-6.92Z M110.04 0.56Q103.80 0.56 100.34-2.84Q96.88-6.24 96.88-12.48L96.88-12.48L96.88-28L104.80-28L104.80-12.72Q104.80-6 110.12-6L110.12-6Q115.40-6 115.40-12.72L115.40-12.72L115.40-28L123.20-28L123.20-12.48Q123.20-6.24 119.74-2.84Q116.28 0.56 110.04 0.56L110.04 0.56Z M136.40-6.12L151.04-6.12L151.04 0L128.56 0L128.56-28L150.52-28L150.52-21.88L136.40-21.88L136.40-17.16L148.84-17.16L148.84-11.24L136.40-11.24L136.40-6.12Z M185.96-28L193.72-28L193.72 0L187.20 0L174.84-14.92L174.84 0L167.08 0L167.08-28L173.60-28L185.96-13.08L185.96-28Z M207.16-6.12L221.80-6.12L221.80 0L199.32 0L199.32-28L221.28-28L221.28-21.88L207.16-21.88L207.16-17.16L219.60-17.16L219.60-11.24L207.16-11.24L207.16-6.12Z M236.04 0.56Q232.64 0.56 229.44-0.28Q226.24-1.12 224.24-2.52L224.24-2.52L226.84-8.36Q228.72-7.12 231.20-6.36Q233.68-5.60 236.08-5.60L236.08-5.60Q240.64-5.60 240.64-7.88L240.64-7.88Q240.64-9.08 239.34-9.66Q238.04-10.24 235.16-10.88L235.16-10.88Q232.00-11.56 229.88-12.34Q227.76-13.12 226.24-14.84Q224.72-16.56 224.72-19.48L224.72-19.48Q224.72-22.04 226.12-24.10Q227.52-26.16 230.30-27.36Q233.08-28.56 237.12-28.56L237.12-28.56Q239.88-28.56 242.56-27.94Q245.24-27.32 247.28-26.12L247.28-26.12L244.84-20.24Q240.84-22.40 237.08-22.40L237.08-22.40Q234.72-22.40 233.64-21.70Q232.56-21 232.56-19.88L232.56-19.88Q232.56-18.76 233.84-18.20Q235.12-17.64 237.96-17.04L237.96-17.04Q241.16-16.36 243.26-15.58Q245.36-14.80 246.90-13.10Q248.44-11.40 248.44-8.48L248.44-8.48Q248.44-5.96 247.04-3.92Q245.64-1.88 242.84-0.66Q240.04 0.56 236.04 0.56L236.04 0.56Z M257.64 0L257.64-21.72L249.04-21.72L249.04-28L274.12-28L274.12-21.72L265.56-21.72L265.56 0L257.64 0Z"/></g>
</svg>
</g><g opacity="1" transform="rotate(0 148.2278 87.1279)">
<svg width="188.6544" height="196.7395" x="148.2278" y="87.1279" version="1.1" preserveAspectRatio="none" viewBox="30 27 140 146">
  <g transform="matrix(1 0 0 1 0 0)"><g><path d="M170 100.9c0-.1-.1-.3-.2-.4L105.5 27 30 102.9l1.2 1.1 71.8 68.4.6.6 66.2-71.5c.1-.1.2-.4.2-.6zm-2.8-1.1l-46.6-11.4-14.3-58.3 60.9 69.7zm-38.8 26.5l-43-10.5-12.8-37.6 46.7 11.4 9.1 36.7zM119 88L73.1 76.8l32-45L119 88zm-14.3-58.2L71.4 76.7 36.5 99.2l68.2-69.4zM71.2 78.6l12.4 36.7L33.2 103l38-24.4zm-37.1 26.2L84.2 117l17.8 52.5-67.9-64.7zm51.8 12.6l41.6 10.2-23.8 42.3-17.8-52.5zm21.3 49.3l21.9-39 35.6-22.9-57.5 61.9zm22.5-41.1L121 90l46.5 11.3-37.8 24.3z" data-color="1" class="icon1"></path></g></g>
</svg>
</g></svg></svg>